<svg xmlns="http://www.w3.org/2000/svg" width="40" height="40" fill="none"><path fill="#C4C4C4" d="M22.23 36.36h-4.46l.25.74c.3.88.92 1.44 1.6 1.44h.76c.68 0 1.3-.55 1.6-1.44l.25-.74z"/><path fill="url(#paint0_radial)" d="M22.23 36.36h-4.46l.25.74c.3.88.92 1.44 1.6 1.44h.76c.68 0 1.3-.55 1.6-1.44l.25-.74z"/><path fill="url(#paint1_linear)" stroke="#5A5E61" stroke-linecap="round" stroke-linejoin="round" stroke-width=".75" d="M17.77 37.07h0c-.64 0-1.2-.51-1.27-1.24l-.45-4.55h7.9l-.45 4.55c-.07.73-.64 1.24-1.27 1.24h-.78a91.57 91.57 0 01-.9.01h-2.79z"/><rect width="8.39" height="3.27" x="15.81" y="29.65" fill="#4A4B4F" opacity=".5" rx="1"/><path fill="url(#paint2_radial)" d="M14.92 29.81a7.2 7.2 0 00-.7-2.75c-.4-.98-.97-2-1.56-3.01a115.17 115.17 0 00-1.05-1.74l-.7-1.17c-.54-.9-1-1.71-1.26-2.36l-.58-1.68h21.85l-.6 1.68c-.26.65-.7 1.45-1.25 2.37l-.78 1.29-.99 1.62a28.6 28.6 0 00-1.6 3.02 7.3 7.3 0 00-.7 2.74v2.2a.8.8 0 01-.8.7h-8.42a.8.8 0 01-.8-.7l-.06-2.2z"/><path fill="url(#paint3_radial)" d="M14.92 29.81a7.2 7.2 0 00-.7-2.75c-.4-.98-.97-2-1.56-3.01a115.17 115.17 0 00-1.05-1.74l-.7-1.17c-.54-.9-1-1.71-1.26-2.36l-.58-1.68h21.85l-.6 1.68c-.26.65-.7 1.45-1.25 2.37l-.78 1.29-.99 1.62a28.6 28.6 0 00-1.6 3.02 7.3 7.3 0 00-.7 2.74v2.2a.8.8 0 01-.8.7h-8.42a.8.8 0 01-.8-.7l-.06-2.2z"/><path fill="url(#paint4_radial)" d="M14.92 29.81a7.2 7.2 0 00-.7-2.75c-.4-.98-.97-2-1.56-3.01a115.17 115.17 0 00-1.05-1.74l-.7-1.17c-.54-.9-1-1.71-1.26-2.36l-.58-1.68h21.85l-.6 1.68c-.26.65-.7 1.45-1.25 2.37l-.78 1.29-.99 1.62a28.6 28.6 0 00-1.6 3.02 7.3 7.3 0 00-.7 2.74v2.2a.8.8 0 01-.8.7h-8.42a.8.8 0 01-.8-.7l-.06-2.2z"/><path stroke="url(#paint5_linear)" stroke-linecap="round" stroke-linejoin="round" stroke-width=".75" d="M14.92 29.81a7.2 7.2 0 00-.7-2.75c-.4-.98-.97-2-1.56-3.01a115.17 115.17 0 00-1.05-1.74l-.7-1.17c-.54-.9-1-1.71-1.26-2.36l-.58-1.68h21.85l-.6 1.68c-.26.65-.7 1.45-1.25 2.37l-.78 1.29-.99 1.62a28.6 28.6 0 00-1.6 3.02 7.3 7.3 0 00-.7 2.74v2.2a.8.8 0 01-.8.7h-8.42a.8.8 0 01-.8-.7l-.06-2.2z"/><path fill="url(#paint6_radial)" stroke="#C2C2C2" stroke-width=".75" d="M31.63 13.46c0 1.82-.42 3.54-1.17 5.07H9.54a11.58 11.58 0 01-1.17-5.08 11.63 11.63 0 0123.26 0z"/><circle cx="20" cy="9.09" r="5.46" fill="url(#paint7_linear)"/><defs><radialGradient id="paint0_radial" cx="0" cy="0" r="1" gradientTransform="matrix(0 2.18182 -2.13598 0 20 36.36)" gradientUnits="userSpaceOnUse"><stop offset=".22" stop-color="#817E7E"/><stop offset=".65" stop-color="#48494D"/><stop offset=".89" stop-color="#535458"/></radialGradient><radialGradient id="paint2_radial" cx="0" cy="0" r="1" gradientTransform="matrix(0 13.7088 -6.32909 0 20 17.96)" gradientUnits="userSpaceOnUse"><stop stop-color="#F8F8F8"/><stop offset="1" stop-color="#CECECE"/></radialGradient><radialGradient id="paint3_radial" cx="0" cy="0" r="1" gradientTransform="matrix(0 6.54546 -10.0524 0 20 18.91)" gradientUnits="userSpaceOnUse"><stop offset=".43" stop-color="#EBE9E7"/><stop offset=".89" stop-color="#EBE9E7" stop-opacity="0"/></radialGradient><radialGradient id="paint4_radial" cx="0" cy="0" r="1" gradientTransform="matrix(0 -7.09091 5.86364 0 20 32.55)" gradientUnits="userSpaceOnUse"><stop offset=".38" stop-color="#EBE9E7"/><stop offset=".9" stop-color="#EBE9E7" stop-opacity="0"/></radialGradient><radialGradient id="paint6_radial" cx="0" cy="0" r="1" gradientTransform="matrix(0 -12 12 0 20 13.46)" gradientUnits="userSpaceOnUse"><stop offset=".23" stop-color="#fff"/><stop offset=".86" stop-color="#EBE9E7"/></radialGradient><linearGradient id="paint1_linear" x1="16.05" x2="23.95" y1="34.98" y2="34.98" gradientUnits="userSpaceOnUse"><stop stop-color="#fff"/><stop offset=".19" stop-color="#B6B6B6"/><stop offset=".24" stop-color="#39393D"/><stop offset=".34" stop-color="#47484C"/><stop offset=".44" stop-color="#fff"/><stop offset=".57" stop-color="#fff"/><stop offset=".68" stop-color="#47484C"/><stop offset=".75" stop-color="#39393D"/><stop offset=".83" stop-color="#B6B6B6"/><stop offset="1" stop-color="#fff"/></linearGradient><linearGradient id="paint5_linear" x1="20" x2="20" y1="18.91" y2="33.09" gradientUnits="userSpaceOnUse"><stop stop-color="#C2C2C2"/><stop offset="1" stop-color="#A1A1A1"/></linearGradient><linearGradient id="paint7_linear" x1="20" x2="20" y1="3.64" y2="14.54" gradientUnits="userSpaceOnUse"><stop stop-color="#fff"/><stop offset="1" stop-color="#fff" stop-opacity="0"/></linearGradient></defs></svg>