<svg xmlns="http://www.w3.org/2000/svg" width="40" height="40" fill="none"><path fill="#E86C60" d="M26.09 12.87a23.2 23.2 0 0 1-.38-.47.58.58 0 0 0-1.02.17c-.32.98-.8 1.9-1.44 2.71.04-2.31-.42-6.4-3.78-8.6a.58.58 0 0 0-.9.49c0 1.9-1.03 3.94-2.8 5.58-1.73 1.59-5.73 5.78-5.69 10.42.03 3.05 1.5 7.19 5.16 9.14a.58.58 0 0 0 .85-.39c.34-1.27.9-2.47 1.66-3.55.82-1.32 1.6-2.57 1.67-4.31a.58.58 0 0 1 .98-.4c2.07 1.95 3.29 4.73 3.6 8.1a.58.58 0 0 0 .84.45c2.64-1.4 4.7-4.08 5.04-8.21.47-5.88-2.4-9.43-3.8-11.13z"/></svg>