<svg xmlns="http://www.w3.org/2000/svg" width="40" height="40" fill="none"><path fill="#DDBE99" d="M21.75 32.83a.58.58 0 0 1-.58-.58v-10.5a.58.58 0 0 1 .58-.58h10.5a.58.58 0 0 1 .58.58 11.1 11.1 0 0 1-11.08 11.08z"/><path fill="#EA9860" d="M21.75 30.5a.58.58 0 0 1-.58-.58v-8.17a.58.58 0 0 1 .58-.58h8.17a.58.58 0 0 1 .58.58 8.76 8.76 0 0 1-8.75 8.75z"/><path fill="#DDBE99" d="M18.25 29.33a11.08 11.08 0 1 1 11.08-11.08.58.58 0 0 1-.58.58h-9.92v9.92a.58.58 0 0 1-.58.58z"/><path fill="#EA9860" d="M18.25 27A8.75 8.75 0 1 1 27 18.25a.58.58 0 0 1-.58.58h-7.59v7.59a.58.58 0 0 1-.58.58z"/><path fill="#C94F49" d="M15.04 17.67a2.04 2.04 0 1 0 0-4.09 2.04 2.04 0 0 0 0 4.09zm6.42-1.75a1.46 1.46 0 1 0 0-2.92 1.46 1.46 0 0 0 0 2.92zm.58 7.58c-.3 0-.6.07-.87.2v3.68a2.02 2.02 0 0 0 2.32-.4 2.04 2.04 0 0 0-1.45-3.48zm-3.21-2.71a2.02 2.02 0 0 0-2.32.4 2.04 2.04 0 0 0 2.32 3.27V20.8z"/></svg>