<svg xmlns="http://www.w3.org/2000/svg" width="40" height="40" fill="none"><path fill="#E86C60" d="M20 12.42a13.42 13.42 0 0 0-13.4 14h3.51c0-.2-.03-.39-.03-.59a9.92 9.92 0 1 1 19.84 0c0 .2-.02.4-.03.59h3.51l.02-.59c0-7.4-6.01-13.41-13.42-13.41z"/><path fill="#EFD358" d="M20 14.75A11.08 11.08 0 0 0 8.92 25.83c0 .2.02.4.03.59h3.5a7.58 7.58 0 1 1 15.1 0h3.5c.01-.2.03-.39.03-.59 0-6.12-4.96-11.08-11.08-11.08z"/><path fill="#72C472" d="M20 17.08a8.75 8.75 0 0 0-8.75 8.75c0 .2.02.4.03.59h3.5a5.25 5.25 0 1 1 10.43 0h3.51c.01-.2.03-.39.03-.59A8.75 8.75 0 0 0 20 17.08z"/><path fill="#42A6DD" d="M20 19.42a6.42 6.42 0 0 0-6.39 7h2.35c-.02-.2-.04-.39-.04-.59a4.08 4.08 0 1 1 8.12.59h2.35c.01-.2.03-.39.03-.59A6.42 6.42 0 0 0 20 19.42z"/></svg>