<svg xmlns="http://www.w3.org/2000/svg" width="40" height="40" fill="none"><path fill="#E86C60" d="M20 32.5a.58.58 0 0 0-.58.58v2.34a.58.58 0 1 0 1.16 0v-2.34a.58.58 0 0 0-.58-.58zm7.84-2.9a.58.58 0 1 0-.83.82l1.65 1.65a.58.58 0 0 0 .83 0 .58.58 0 0 0 0-.82l-1.65-1.65zm-15.68 0l-1.65 1.65a.58.58 0 1 0 .83.82l1.65-1.65a.58.58 0 1 0-.83-.82z"/><path fill="#444" d="M33.42 8c-3.14 0-5.16 1.7-7.12 3.36-1.86 1.57-3.63 3.06-6.3 3.06s-4.44-1.49-6.3-3.06C11.74 9.7 9.72 8 6.58 8a.58.58 0 1 0 0 1.17c2.71 0 4.49 1.5 6.37 3.08 1.68 1.42 3.42 2.89 5.88 3.25v2.42h2.34V15.5c2.46-.36 4.2-1.83 5.88-3.25 1.88-1.59 3.66-3.08 6.37-3.08a.58.58 0 1 0 0-1.17z"/><path fill="#EFD358" d="M20 30.17c-2.7 0-4.67-5.7-4.67-8.13 0-2.6 2.1-4.7 4.67-4.7a4.7 4.7 0 0 1 4.67 4.7c0 2.42-1.97 8.13-4.67 8.13z"/></svg>