<svg xmlns="http://www.w3.org/2000/svg" width="40" height="40" fill="none"><path fill="#388E3C" d="M15.76 8.37a4.2 4.2 0 00-4.83 1 .54.54 0 000 .76l2.17 2.17c.21.21.56.21.77 0l.16-.16V13c0 .19.1.36.26.46l2.37 1.42.1.05c1.08.34 2.05.92 2.86 1.7a.54.54 0 00.59.13c.2-.09.33-.29.33-.5 0-3.37-2.06-6.76-4.78-7.89z"/><path fill="#4CAF50" d="M29.07 9.36a4.2 4.2 0 00-4.83-.98c-2.72 1.12-4.78 4.51-4.78 7.87a.54.54 0 00.92.39 7.14 7.14 0 012.96-1.76l2.36-1.42c.17-.1.27-.27.27-.46v-.86l.16.15c.2.22.55.22.77 0l2.17-2.17a.54.54 0 000-.76z"/><path fill="#8E6354" d="M21.63 16.76a.54.54 0 00-.58-.5.54.54 0 00-.5.54h-1.1a.54.54 0 00-1.08-.04L17.3 31.42a.54.54 0 00.54.58h4.34a.54.54 0 00.55-.58l-1.1-14.66z"/><path fill="#388E3C" d="M28.36 13.99a8.36 8.36 0 00-8.74 1.89.54.54 0 00.27.91l6.31 1.35c.24.05.48-.06.6-.27l.23-.44.36.7c.07.15.22.26.38.3l2.99.53.1.01c.3 0 .54-.24.54-.54a4.65 4.65 0 00-3.04-4.44z"/><path fill="#4CAF50" d="M20.38 15.88a8.35 8.35 0 00-8.74-1.9 4.65 4.65 0 00-3.04 4.44.54.54 0 00.64.54l2.99-.54a.54.54 0 00.38-.3l.36-.7.24.44c.11.21.35.32.59.27l6.3-1.34a.54.54 0 00.28-.92z"/></svg>