<svg xmlns="http://www.w3.org/2000/svg" width="40" height="40" fill="none"><g clip-path="url(#clip0)"><path fill="#444" d="M29.82 31.3H10.18a.5.5 0 0 1-.5-.5V17.06a.5.5 0 0 1 .5-.49h19.64c.28 0 .5.22.5.5V30.8a.5.5 0 0 1-.5.49z"/><path fill="#444" d="M28.65 8.8L9.39 12.7a.5.5 0 0 0-.38.58l.68 3.37a.5.5 0 0 0 .58.38l19.26-3.9a.5.5 0 0 0 .38-.59l-.68-3.37a.5.5 0 0 0-.58-.38z"/><path fill="#444" d="M12.96 12.99l-1.92 2.9 3.85-.79 1.92-2.9-3.85.79z"/><path fill="#999" d="M10.07 13.58l.49 2.4.48-.1 1.92-2.9-2.89.6z"/><path fill="#444" d="M28.85 12.27l-.49-2.41-1.91 2.9 2.4-.5z"/><path fill="#999" d="M22.6 13.54l3.85-.78 1.91-2.9-3.85.78-1.92 2.9zm-5.79-1.34l-1.92 2.9 3.85-.78 1.92-2.9-3.85.79z"/><path fill="#444" d="M20.66 11.42l-1.92 2.9 3.85-.78 1.92-2.9-3.85.78z"/><path fill="#999" d="M26.88 22.46H13.12a.5.5 0 0 1 0-.99h13.76a.5.5 0 1 1 0 .99zm-2.95 3.44h-10.8a.5.5 0 1 1 0-.99h10.8a.5.5 0 1 1 0 .98z"/></g><defs><clipPath id="clip0"><path fill="#fff" d="M0 0h23.58v23.58H0z" transform="translate(8.21 8.21)"/></clipPath></defs></svg>