<svg fill="none" height="40" viewBox="0 0 40 40" width="40" xmlns="http://www.w3.org/2000/svg"><path d="m30.4883 23.8307c-.1487-.1478-.3646-.2042-.5662-.1504-.9793.2675-1.9625.403-2.9224.403-6.1113 0-11.0833-4.972-11.0833-11.0833 0-.9607.1356-1.944.4033-2.9226.0553-.20198-.0023-.41817-.1504-.56628-.1475-.14783-.3646-.20451-.5662-.15039-5.311 1.45067-9.02005 6.30557-9.02005 11.80597 0 6.7547 5.49555 12.25 12.25005 12.25 5.5006 0 10.3553-3.7091 11.8056-9.0198.0553-.2022-.0023-.4181-.1504-.5662z" fill="#efd358"/><g fill="#c6c6c6"><path d="m25.8331 8.91671c-.9651 0-1.75-.785-1.75-1.75 0-.32215-.261-.58334-.5834-.58334s-.5833.26119-.5833.58334c0 .965-.785 1.75-1.75 1.75-.3224 0-.5833.26119-.5833.58333s.2609.58336.5833.58336c.965 0 1.75.785 1.75 1.75 0 .3221.2609.5833.5833.5833s.5834-.2612.5834-.5833c0-.965.7849-1.75 1.75-1.75.3224 0 .5833-.26122.5833-.58336s-.2609-.58333-.5833-.58333z"/><path d="m32.8331 15.9167c-.9651 0-1.75-.785-1.75-1.75 0-.3221-.261-.5833-.5834-.5833s-.5833.2612-.5833.5833c0 .965-.785 1.75-1.75 1.75-.3224 0-.5833.2612-.5833.5833 0 .3222.2609.5834.5833.5834.965 0 1.75.785 1.75 1.75 0 .3221.2609.5833.5833.5833s.5834-.2612.5834-.5833c0-.965.7849-1.75 1.75-1.75.3224 0 .5833-.2612.5833-.5834 0-.3221-.2609-.5833-.5833-.5833z"/></g></svg>