<svg xmlns="http://www.w3.org/2000/svg" width="40" height="40" fill="none"><path fill="#82ADB2" d="M32.46 18.38H7.54v-6.5a.54.54 0 01.54-.55 4.97 4.97 0 003.67-1.66.56.56 0 01.4-.18.54.54 0 01.4.18 4.87 4.87 0 007.31 0 .54.54 0 01.82 0 4.87 4.87 0 007.07.27.54.54 0 01.76 0c.9.9 2.13 1.4 3.41 1.4a.54.54 0 01.54.54v6.5z"/><path fill="#A4DAE0" d="M32.46 24.88H7.54v-6.5a.54.54 0 01.54-.55 4.97 4.97 0 003.67-1.66.56.56 0 01.4-.18.54.54 0 01.4.18 4.86 4.86 0 007.32 0 .54.54 0 01.8 0 4.86 4.86 0 007.08.27.54.54 0 01.76 0c.9.9 2.13 1.4 3.41 1.4a.54.54 0 01.54.54v6.5z"/><path fill="#C8E9EC" d="M31.92 30.83H8.08a.54.54 0 01-.54-.54v-5.41a.54.54 0 01.54-.55 4.97 4.97 0 003.67-1.66.56.56 0 01.4-.18.54.54 0 01.4.18 4.86 4.86 0 007.31 0 .56.56 0 01.82 0 4.86 4.86 0 007.07.27.54.54 0 01.75 0c.91.9 2.14 1.4 3.42 1.4a.54.54 0 01.54.54v5.41a.54.54 0 01-.54.54z"/></svg>