<svg xmlns="http://www.w3.org/2000/svg" width="40" height="40" fill="none"><path fill="#EFD358" d="M27.4 24.86L15.13 12.61a.54.54 0 0 0-.9.2L8.1 31.22a.54.54 0 0 0 .69.68l18.38-6.13a.54.54 0 0 0 .21-.9z"/><path fill="#E2AC4B" d="M27.4 25.63c1.05-1.06-1-4.83-4.6-8.43-3.6-3.6-7.37-5.65-8.43-4.6-1.06 1.07 1 4.84 4.6 8.43 3.6 3.6 7.37 5.66 8.42 4.6z"/><path fill="#43A6DD" d="M23.8 20.54a.54.54 0 0 1-.5-.77c1.37-2.9 4.77-3.9 8.29-2.44a.54.54 0 0 1-.42 1c-2.95-1.23-5.78-.45-6.89 1.9a.54.54 0 0 1-.49.31z"/><path fill="#E86C60" d="M27.04 13.5a1.63 1.63 0 1 0 0-3.25 1.63 1.63 0 0 0 0 3.25z"/><path fill="#E2AC4B" d="M29.2 29.2a1.08 1.08 0 1 0 0-2.16 1.08 1.08 0 0 0 0 2.17z"/><path fill="#5A7A84" d="M22.17 17.83a1.08 1.08 0 1 0 0-2.16 1.08 1.08 0 0 0 0 2.16z"/><path fill="#AE453E" d="M30.02 22.17a.81.81 0 1 0 0-1.63.81.81 0 0 0 0 1.63z"/><path fill="#E2AC4B" d="M16.48 10.25a.81.81 0 1 0 0-1.63.81.81 0 0 0 0 1.63z"/><path fill="#E86C60" d="M18.38 17.3a.54.54 0 0 1-.33-.98 6.51 6.51 0 0 0 2-8.02.54.54 0 0 1 .99-.43 7.57 7.57 0 0 1-2.34 9.31c-.1.07-.2.11-.32.11z"/><path fill="#43A6DD" d="M9.26 14.49a.54.54 0 0 1-.38-.16 2.7 2.7 0 1 1 3.83-3.83.54.54 0 0 1-.77.77 1.66 1.66 0 0 0-2.3 0 1.63 1.63 0 0 0 0 2.3.54.54 0 0 1-.38.92z"/></svg>