<svg xmlns="http://www.w3.org/2000/svg" width="40" height="40" fill="none"><path fill="#E86C60" d="M7.17 10.08a.58.58 0 0 0-.59.59v5.83c0 .32.26.58.59.58h21c.32 0 .58-.26.58-.58v-5.83a.58.58 0 0 0-.58-.59h-21z"/><path fill="#C64B4B" d="M15.33 14.17h-3.5a.58.58 0 1 1 0-1.17h3.5a.58.58 0 1 1 0 1.17zm4.09 0h-1.17a.58.58 0 1 1 0-1.17h1.17a.58.58 0 1 1 0 1.17z"/><path fill="#9BCED3" d="M7.17 24.08a.58.58 0 0 0-.59.59v5.83c0 .32.26.58.59.58h21c.32 0 .58-.26.58-.58v-5.83a.58.58 0 0 0-.58-.59h-21z"/><path fill="#76B5B5" d="M15.33 28.17h-3.5a.58.58 0 1 1 0-1.17h3.5a.58.58 0 1 1 0 1.17zm4.09 0h-1.17a.58.58 0 1 1 0-1.17h1.17a.58.58 0 1 1 0 1.17z"/><path fill="#DDBE99" d="M11.25 17.67v5.83c0 .32.26.58.58.58h21c.33 0 .59-.26.59-.58v-5.83a.58.58 0 0 0-.59-.59h-21a.58.58 0 0 0-.58.59z"/><path fill="#C6A279" d="M20 21.17h-3.5a.58.58 0 1 1 0-1.17H20a.58.58 0 1 1 0 1.17zm4.08 0h-1.16a.58.58 0 1 1 0-1.17h1.16a.58.58 0 1 1 0 1.17z"/></svg>