<svg xmlns="http://www.w3.org/2000/svg" width="40" height="40" fill="none"><path fill="#5B5B5B" d="M24.67 32.25h-4.09V20a.58.58 0 0 0-1.16 0v12.25h-4.09a.58.58 0 0 0 0 1.17h9.34a.58.58 0 1 0 0-1.17z"/><path fill="#9EDB9E" d="M20 8.92c3.45 1.72 4.67 5.95 4.67 11.66h6.94a.58.58 0 0 0 .58-.64A12.2 12.2 0 0 0 20 8.92zm0 0A12.2 12.2 0 0 0 7.81 19.94a.58.58 0 0 0 .58.64h6.94c0-5.71 1.22-9.94 4.67-11.66z"/><path fill="#72C472" d="M20 8.92c-3.45 1.72-4.67 5.95-4.67 11.66h9.34c0-5.71-1.22-9.94-4.67-11.66z"/><path fill="#5B5B5B" d="M20 9.5a.58.58 0 0 1-.58-.58V7.17a.58.58 0 1 1 1.16 0v1.75c0 .32-.26.58-.58.58z"/></svg>