<svg xmlns="http://www.w3.org/2000/svg" width="40" height="40" fill="none"><path fill="#FFD764" d="M20 32.83a12.83 12.83 0 1 1 0-25.66 12.83 12.83 0 0 1 0 25.66z"/><path fill="#fff" d="M26.77 24.67a6.9 6.9 0 0 0 .23-1.75.58.58 0 0 0-.58-.59H13.58a.58.58 0 0 0-.58.59c0 .59.08 1.18.23 1.75h13.54z"/><path fill="#AE453E" d="M13.23 24.67a6.99 6.99 0 0 0 13.54 0H13.23z"/><path fill="#E86C60" d="M16.5 28.97a6.94 6.94 0 0 0 7 0 4.07 4.07 0 0 0-7 0z"/><path fill="#FA645A" d="M15.49 13.07a2.06 2.06 0 0 0-1.42 1.31 2.04 2.04 0 0 0-3.34 2.04c.52 1.97 4.91 3.99 4.91 3.99s2.85-3.91 2.34-5.89a2.05 2.05 0 0 0-2.5-1.45zm6.53 1.46c-.51 1.97 2.34 5.88 2.34 5.88s4.39-2.02 4.9-4a2.04 2.04 0 0 0-3.33-2.03 2.04 2.04 0 0 0-3.9.15z"/></svg>