<svg xmlns="http://www.w3.org/2000/svg" width="40" height="40" fill="none"><path fill="#E86C60" d="M20 14h-3.8c-.98 0-1.8.63-1.9 1.46L13 27h7V14z"/><path fill="#42A6DD" d="M20 14h3.8c.98 0 1.8.63 1.9 1.46L27 27h-7V14zm0-4.21a.7.7 0 0 1-.7-.7V6.83a.7.7 0 0 1 1.4 0v2.26a.7.7 0 0 1-.7.7zm7.17 2.97a.7.7 0 0 1 0-.99l1.6-1.6a.7.7 0 0 1 .98.99l-1.6 1.6c-.19.2-.74.25-.98 0z"/><path fill="#E86C60" d="M11.85 12.76l-1.6-1.6a.7.7 0 0 1 .99-.99l1.6 1.6a.7.7 0 0 1 0 .99c-.33.31-.86.13-1 0z"/><path fill="#42A6DD" d="M33.3 20.62h-2.47a.7.7 0 1 1 0-1.4h2.47a.7.7 0 1 1 0 1.4z"/><path fill="#E86C60" d="M9.17 20.62H6.7a.7.7 0 0 1 0-1.4h2.47a.7.7 0 1 1 0 1.4z"/><path fill="#444" d="M12 29.5c0-.28.22-.5.5-.5h15c.28 0 .5.22.5.5v1a.5.5 0 0 1-.5.5h-15a.5.5 0 0 1-.5-.5v-1zm.5-2c0-.28.22-.5.5-.5h14c.28 0 .5.22.5.5V29h-15v-1.5z"/></svg>