<svg xmlns="http://www.w3.org/2000/svg" width="40" height="40" fill="none"><path fill="#EA9860" d="M8.33 21.33H7.17a.58.58 0 1 1 0-1.16h1.16a.58.58 0 1 1 0 1.16zm3.39-8.28a.58.58 0 0 1-.42-.17l-.81-.82a.58.58 0 1 1 .82-.82l.82.81a.58.58 0 0 1-.41 1zM20 9.67a.58.58 0 0 1-.58-.59V7.92a.58.58 0 1 1 1.16 0v1.16c0 .33-.26.59-.58.59zm8.28 3.38a.58.58 0 0 1-.4-1l.8-.81a.58.58 0 1 1 .83.82l-.81.82a.58.58 0 0 1-.42.17zm4.55 8.28h-1.16a.58.58 0 1 1 0-1.16h1.16a.58.58 0 1 1 0 1.16z"/><path fill="#42A6DD" d="M32.83 26H7.17a.58.58 0 1 1 0-1.17h25.66a.58.58 0 1 1 0 1.17zm-3.5 4.08H10.67a.58.58 0 1 1 0-1.16h18.66a.58.58 0 1 1 0 1.16z"/><path fill="#EA9860" d="M26.38 24.83a7.58 7.58 0 1 0-12.77 0h12.77z"/></svg>