<svg xmlns="http://www.w3.org/2000/svg" width="40" height="40" fill="none"><path fill="url(#paint0_radial_6343_17448)" stroke="url(#paint1_linear_6343_17448)" stroke-width=".75" d="M8.48 35.45a11.63 11.63 0 0123.04 0c.09.62-.43 1.17-1.12 1.17H9.6c-.7 0-1.2-.55-1.12-1.17z"/><circle cx="20" cy="17" r="14.5" fill="url(#paint2_radial_6343_17448)" stroke="url(#paint3_linear_6343_17448)"/><rect width="15" height="24" x="12.5" y="4.5" fill="url(#paint4_linear_6343_17448)" stroke="url(#paint5_linear_6343_17448)" rx="7.5"/><path fill="url(#paint6_linear_6343_17448)" stroke="url(#paint7_linear_6343_17448)" d="M12.5 16a7.5 7.5 0 1115 0 7.5 7.5 0 01-15 0z"/><path fill="url(#paint8_radial_6343_17448)" d="M12 16c0-4.42 3.38-8 7.56-8h.88C24.62 8 28 11.58 28 16s-3.38 8-7.56 8h-.88C15.38 24 12 20.42 12 16z" opacity=".5"/><path fill="#000" d="M24 16c0 2.2-1.7 4-3.78 4h-.44A3.9 3.9 0 0116 16c0-2.2 1.7-4 3.78-4h.44A3.9 3.9 0 0124 16z" opacity=".7"/><path fill="#000" d="M21 16c0 .55-.42 1-.94 1h-.12a.97.97 0 01-.94-1c0-.55.42-1 .94-1h.12c.52 0 .94.45.94 1z" opacity=".5"/><defs><linearGradient id="paint1_linear_6343_17448" x1="20" x2="20" y1="25" y2="37" gradientUnits="userSpaceOnUse"><stop stop-color="#DEDEDE"/><stop offset="1" stop-color="#A3A3A3"/></linearGradient><linearGradient id="paint3_linear_6343_17448" x1="20" x2="20" y1="2" y2="32" gradientUnits="userSpaceOnUse"><stop stop-color="#D3D3D3"/><stop offset="1" stop-color="#A3A3A3"/></linearGradient><linearGradient id="paint4_linear_6343_17448" x1="17.67" x2="17.67" y1="29" y2="4" gradientUnits="userSpaceOnUse"><stop stop-color="#BDBBB9"/><stop offset="1" stop-color="#DEDBD9"/></linearGradient><linearGradient id="paint5_linear_6343_17448" x1="20" x2="20" y1="4" y2="29" gradientUnits="userSpaceOnUse"><stop offset=".67" stop-color="#A7A5A5"/><stop offset=".93" stop-color="#F4F4F4"/></linearGradient><linearGradient id="paint6_linear_6343_17448" x1="20" x2="20" y1="8" y2="24" gradientUnits="userSpaceOnUse"><stop offset=".02" stop-color="#5A5B61"/><stop offset=".93" stop-color="#47484C"/></linearGradient><linearGradient id="paint7_linear_6343_17448" x1="20" x2="20" y1="8" y2="24" gradientUnits="userSpaceOnUse"><stop stop-color="#47484C"/><stop offset="1" stop-color="#39393D"/></linearGradient><radialGradient id="paint0_radial_6343_17448" cx="0" cy="0" r="1" gradientTransform="matrix(10.50003 2.25002 -1.6587 7.74055 22.25 28.75)" gradientUnits="userSpaceOnUse"><stop offset=".09" stop-color="#fff"/><stop offset=".71" stop-color="#EDEBEA"/><stop offset="1" stop-color="#E1E0DE"/></radialGradient><radialGradient id="paint2_radial_6343_17448" cx="0" cy="0" r="1" gradientTransform="matrix(13.12502 5.62501 -7.32828 17.09931 22.81 11.38)" gradientUnits="userSpaceOnUse"><stop offset=".09" stop-color="#fff"/><stop offset=".71" stop-color="#EDEBEA"/><stop offset="1" stop-color="#E1E0DE"/></radialGradient><radialGradient id="paint8_radial_6343_17448" cx="0" cy="0" r="1" gradientTransform="matrix(0 -16.1754 22.5725 0 20 23.33)" gradientUnits="userSpaceOnUse"><stop offset=".71" stop-color="#fff" stop-opacity="0"/><stop offset=".71" stop-color="#fff" stop-opacity=".15"/><stop offset="1" stop-color="#fff"/></radialGradient></defs></svg>