<svg xmlns="http://www.w3.org/2000/svg" width="40" height="40" fill="none"><path fill="#39393D" fill-rule="evenodd" d="M24 11a1 1 0 011-1h3.06a7.78 7.78 0 017.77 7.78c0 2.31-.83 4.56-2.34 6.32l-2.9 3.38a1 1 0 11-1.52-1.3l2.9-3.38a7.71 7.71 0 001.86-5.02A5.78 5.78 0 0028.06 12H25a1 1 0 01-1-1z" clip-rule="evenodd"/><path fill="url(#paint0_linear)" stroke="url(#paint1_linear)" stroke-width=".75" d="M5.33 10.38h6.53L8.54 22.91 4.72 11.17a.63.63 0 01.6-.8z"/><path fill="url(#paint2_linear)" d="M28.08 11.62a100.5 100.5 0 012.54 22.44c0 .88-.68 1.56-1.5 1.56H8.88c-.81 0-1.5-.68-1.5-1.56 0-7.54.87-15.1 2.55-22.44a9.16 9.16 0 018.8-7.25h.55a9.15 9.15 0 018.8 7.25z"/><path fill="url(#paint3_radial)" d="M28.08 11.62a100.5 100.5 0 012.54 22.44c0 .88-.68 1.56-1.5 1.56H8.88c-.81 0-1.5-.68-1.5-1.56 0-7.54.87-15.1 2.55-22.44a9.16 9.16 0 018.8-7.25h.55a9.15 9.15 0 018.8 7.25z"/><path stroke="url(#paint4_linear)" stroke-width=".75" d="M28.08 11.62a100.5 100.5 0 012.54 22.44c0 .88-.68 1.56-1.5 1.56H8.88c-.81 0-1.5-.68-1.5-1.56 0-7.54.87-15.1 2.55-22.44a9.16 9.16 0 018.8-7.25h.55a9.15 9.15 0 018.8 7.25z"/><rect width="23.25" height="4.25" x="7.38" y="32.38" fill="url(#paint5_linear)" stroke="url(#paint6_linear)" stroke-width=".75" rx=".63"/><path fill="url(#paint7_linear)" stroke="url(#paint8_linear)" stroke-width=".75" d="M19.27 4.38c3.49 0 6.6 2.09 8.11 5.25H10.61a9.05 9.05 0 018.12-5.26h.54z"/><path fill="url(#paint9_radial)" d="M26 9H12c1.14-2.38 3.79-4 6.79-4h.42c3 0 5.65 1.62 6.79 4z"/><defs><linearGradient id="paint0_linear" x1="7" x2="10.5" y1="11.5" y2="14" gradientUnits="userSpaceOnUse"><stop offset=".02" stop-color="#fff"/><stop offset=".89" stop-color="#DCDCDC"/></linearGradient><linearGradient id="paint1_linear" x1="8.34" x2="8.34" y1="10" y2="24.25" gradientUnits="userSpaceOnUse"><stop stop-color="#C2C2C2"/><stop offset="1" stop-color="#A1A1A1"/></linearGradient><linearGradient id="paint2_linear" x1="19" x2="19" y1="4" y2="36" gradientUnits="userSpaceOnUse"><stop offset=".02" stop-color="#fff"/><stop offset="1" stop-color="#CECECE"/></linearGradient><linearGradient id="paint4_linear" x1="19" x2="19" y1="4" y2="36" gradientUnits="userSpaceOnUse"><stop stop-color="#C2C2C2"/><stop offset="1" stop-color="#A1A1A1"/></linearGradient><linearGradient id="paint5_linear" x1="19" x2="19" y1="32" y2="37" gradientUnits="userSpaceOnUse"><stop offset=".02" stop-color="#5A5B61"/><stop offset=".93" stop-color="#47484C"/></linearGradient><linearGradient id="paint6_linear" x1="19" x2="19" y1="32" y2="37" gradientUnits="userSpaceOnUse"><stop offset=".13" stop-color="#EBE9E7"/><stop offset=".18" stop-color="#47484C"/><stop offset="1" stop-color="#39393D"/></linearGradient><linearGradient id="paint7_linear" x1="19" x2="19" y1="4" y2="10" gradientUnits="userSpaceOnUse"><stop offset=".02" stop-color="#5A5B61"/><stop offset=".93" stop-color="#47484C"/></linearGradient><linearGradient id="paint8_linear" x1="19" x2="19" y1="4" y2="10" gradientUnits="userSpaceOnUse"><stop stop-color="#47484C"/><stop offset="1" stop-color="#39393D"/></linearGradient><radialGradient id="paint3_radial" cx="0" cy="0" r="1" gradientTransform="matrix(0 -26 9.84848 0 19 15.5)" gradientUnits="userSpaceOnUse"><stop offset=".21" stop-color="#fff"/><stop offset=".81" stop-color="#fff" stop-opacity="0"/></radialGradient><radialGradient id="paint9_radial" cx="0" cy="0" r="1" gradientTransform="matrix(0 -8 9.68599 0 19 13)" gradientUnits="userSpaceOnUse"><stop offset=".58" stop-color="#616369" stop-opacity="0"/><stop offset=".91" stop-color="#8B8B8B"/><stop offset=".96" stop-color="#616369" stop-opacity="0"/></radialGradient></defs></svg>