<svg xmlns="http://www.w3.org/2000/svg" width="40" height="40" fill="none"><path fill="url(#paint0_linear)" stroke="url(#paint1_linear)" stroke-width=".75" d="M36.63 20a15.63 15.63 0 11-31.25 0 15.63 15.63 0 0131.25 0z"/><circle cx="21" cy="20" r="14.15" fill="url(#paint2_linear)"/><circle cx="21" cy="20.62" r="11.08" fill="url(#paint3_radial)" transform="rotate(-180 21 20.62)"/><circle cx="21" cy="19.69" r="11.08" fill="url(#paint4_radial)"/><path fill="url(#paint5_linear)" d="M31.5 27.32V12.83l-.1.05A4.09 4.09 0 0029 16.6v2.08c0 .85.27 1.68.76 2.38l.38.52v5.74a.68.68 0 001.36 0z"/><path fill="url(#paint6_linear)" d="M9.34 13a.34.34 0 00-.34.34v4.33a2 2 0 001.33 1.88v7.78a.67.67 0 001.34 0v-7.78A2 2 0 0013 17.67v-4.33a.34.34 0 00-.68-.01l-.15 4.34-.04.15c-.08.3-.52.3-.6 0a1.52 1.52 0 01-.04-.31l-.15-4.18a.34.34 0 00-.68 0l-.15 4.18a1.52 1.52 0 01-.05.31c-.08.3-.51.3-.59 0l-.04-.15-.15-4.34a.34.34 0 00-.34-.33z"/><defs><linearGradient id="paint0_linear" x1="21" x2="21" y1="4" y2="36" gradientUnits="userSpaceOnUse"><stop offset=".02" stop-color="#fff"/><stop offset=".89" stop-color="#DCDCDC"/><stop offset=".93" stop-color="#F5F3F1"/></linearGradient><linearGradient id="paint1_linear" x1="21" x2="21" y1="4" y2="36" gradientUnits="userSpaceOnUse"><stop stop-color="#C2C2C2"/><stop offset="1" stop-color="#A1A1A1"/></linearGradient><linearGradient id="paint2_linear" x1="21" x2="21" y1="5.85" y2="34.15" gradientUnits="userSpaceOnUse"><stop stop-color="#F9F9FA"/><stop offset="1" stop-color="#F0F0F0"/></linearGradient><linearGradient id="paint5_linear" x1="30.25" x2="30.25" y1="13.52" y2="29.99" gradientUnits="userSpaceOnUse"><stop stop-color="#47484C"/><stop offset="1" stop-color="#39393D"/></linearGradient><linearGradient id="paint6_linear" x1="11" x2="11" y1="13.66" y2="29.66" gradientUnits="userSpaceOnUse"><stop stop-color="#47484C"/><stop offset="1" stop-color="#39393D"/></linearGradient><radialGradient id="paint3_radial" cx="0" cy="0" r="1" gradientTransform="matrix(0 11.6602 -11.661 0 21 21.2)" gradientUnits="userSpaceOnUse"><stop offset=".9" stop-color="#fff"/><stop offset="1" stop-color="#fff" stop-opacity="0"/></radialGradient><radialGradient id="paint4_radial" cx="0" cy="0" r="1" gradientTransform="matrix(0 11.0772 -11.078 0 21 19.7)" gradientUnits="userSpaceOnUse"><stop offset=".83" stop-color="#CECECE" stop-opacity=".65"/><stop offset="1" stop-color="#EBEBEB" stop-opacity="0"/></radialGradient></defs></svg>