<svg xmlns="http://www.w3.org/2000/svg" width="40" height="40" fill="none"><path fill="url(#paint0_linear)" stroke="url(#paint1_linear)" stroke-width=".75" d="M35.17 30.28a8.12 8.12 0 01-8.02 6.46H12.91a8.22 8.22 0 01-8.08-6.7c2.8 1.34 8.62 2.25 15.37 2.25 6.45 0 12.06-.77 14.97-2z"/><path fill="url(#paint2_linear)" d="M35.41 30.22v1.23s-.07 5.46-8.57 5.46H13.15c-8.5 0-8.57-5.46-8.57-5.46V11.81a.5.5 0 01.5-.49h29.84a.5.5 0 01.5.49v18.23"/><path stroke="url(#paint3_linear)" stroke-linecap="round" stroke-width=".75" d="M35.41 30.22v1.23s-.07 5.46-8.57 5.46H13.15c-8.5 0-8.57-5.46-8.57-5.46V11.81a.5.5 0 01.5-.49h29.84a.5.5 0 01.5.49v18.23"/><path stroke="#fff" stroke-width=".75" d="M25.07 26.75H14.96a5.38 5.38 0 01-5.38-5.38v-8.62h20.87v8.62a5.38 5.38 0 01-5.38 5.38z"/><path fill="url(#paint4_linear)" stroke="url(#paint5_linear)" stroke-width=".77" d="M25.05 26.07h-10.1a5.52 5.52 0 01-5.38-5.66v-9.09h20.86v9.09c0 3.13-2.4 5.67-5.38 5.67z"/><path fill="#B1B1B1" d="M15.2 23.86a1.05 1.05 0 100-2.1 1.05 1.05 0 000 2.1z"/><path fill="#fff" d="M15.2 23.53a1.05 1.05 0 100-2.1 1.05 1.05 0 000 2.1z"/><path fill="#B1B1B1" d="M18.41 23.86a1.05 1.05 0 100-2.1 1.05 1.05 0 000 2.1z"/><path fill="#fff" d="M18.41 23.53a1.05 1.05 0 100-2.1 1.05 1.05 0 000 2.1z"/><path fill="#B1B1B1" d="M21.62 23.86a1.05 1.05 0 100-2.1 1.05 1.05 0 000 2.1z"/><path fill="#fff" d="M21.62 23.53a1.05 1.05 0 100-2.1 1.05 1.05 0 000 2.1z"/><path fill="#B1B1B1" d="M24.98 23.86a1.05 1.05 0 100-2.1 1.05 1.05 0 000 2.1z"/><path fill="#fff" d="M24.98 23.53a1.05 1.05 0 100-2.1 1.05 1.05 0 000 2.1z"/><path stroke="#fff" stroke-linecap="round" stroke-linejoin="round" stroke-width=".75" d="M4.58 29.24c.22.1.45.19.7.28 3.51 1.33 8.8 2.18 14.71 2.18 5.95 0 11.26-.86 14.78-2.2l.64-.26"/><path stroke="url(#paint6_linear)" stroke-linecap="round" stroke-width=".75" d="M35.41 30.22v1.23s-.07 5.46-8.57 5.46H13.15c-8.5 0-8.57-5.46-8.57-5.46V11.81a.5.5 0 01.5-.49h29.84a.5.5 0 01.5.49v18.23"/><path fill="url(#paint7_linear)" stroke="url(#paint8_linear)" stroke-width=".75" d="M25.04 20.09H14.95a.98.98 0 01-.98-.98v-4.3c0-.54.44-.98.98-.98h10.1c.54 0 .97.44.97.98v4.3c0 .54-.43.98-.98.98z"/><path fill="url(#paint9_linear)" stroke="url(#paint10_linear)" stroke-linecap="round" stroke-width=".75" d="M20 4C7.1 4 4.7 11.32 4.7 11.32h30.6S32.88 4 19.98 4z"/><path fill="url(#paint11_radial)" d="M33.13 10.24H6.9C9.03 7.18 14 5.1 19.61 5.1h.8c5.6 0 10.58 2.08 12.7 5.14z"/><path fill="url(#paint12_linear)" stroke="url(#paint13_linear)" stroke-width=".75" d="M35.41 30.33v1.12s-.06 5.46-8.56 5.46h-13.7c-8.5 0-8.57-5.46-8.57-5.46v-1.39c3.25 1.31 8.94 2.18 15.41 2.18 6.48 0 12.18-.87 15.42-2.18v.27z"/><path fill="#fff" stroke="url(#paint14_linear)" stroke-width=".75" d="M26.89 7.4c.08 0 .13-.1.08-.16-.4-.51-2.06-2.11-6.97-2.11v0c-4.9 0-6.56 1.6-6.97 2.12-.05.06 0 .15.08.15H20v0h6.89z"/><defs><linearGradient id="paint0_linear" x1="4.83" x2="35.17" y1="33.4" y2="33.4" gradientUnits="userSpaceOnUse"><stop offset=".02" stop-color="#5A5B61"/><stop offset=".93" stop-color="#47484C"/></linearGradient><linearGradient id="paint1_linear" x1="20" x2="20" y1="29.39" y2="37.12" gradientUnits="userSpaceOnUse"><stop offset=".18" stop-color="#47484C"/><stop offset="1" stop-color="#39393D"/></linearGradient><linearGradient id="paint2_linear" x1="4.58" x2="35.41" y1="24.11" y2="24.11" gradientUnits="userSpaceOnUse"><stop offset=".02" stop-color="#fff"/><stop offset=".5" stop-color="#DCDCDC"/><stop offset="1" stop-color="#F5F3F1"/></linearGradient><linearGradient id="paint3_linear" x1="20" x2="20" y1="10.95" y2="37.28" gradientUnits="userSpaceOnUse"><stop stop-color="#C2C2C2"/><stop offset="1" stop-color="#A1A1A1"/></linearGradient><linearGradient id="paint4_linear" x1="9.57" x2="30.43" y1="18.7" y2="18.7" gradientUnits="userSpaceOnUse"><stop offset=".02" stop-color="#fff"/><stop offset=".5" stop-color="#DCDCDC"/><stop offset="1" stop-color="#F5F3F1"/></linearGradient><linearGradient id="paint5_linear" x1="20" x2="20" y1="26.46" y2="10.94" gradientUnits="userSpaceOnUse"><stop stop-color="#C2C2C2"/><stop offset="1" stop-color="#A1A1A1"/></linearGradient><linearGradient id="paint6_linear" x1="20" x2="20" y1="10.95" y2="37.28" gradientUnits="userSpaceOnUse"><stop stop-color="#C2C2C2"/><stop offset="1" stop-color="#A1A1A1"/></linearGradient><linearGradient id="paint7_linear" x1="20" x2="20" y1="13.83" y2="20.09" gradientUnits="userSpaceOnUse"><stop offset=".02" stop-color="#5A5B61"/><stop offset=".93" stop-color="#47484C"/></linearGradient><linearGradient id="paint8_linear" x1="20" x2="20" y1="14.27" y2="19.65" gradientUnits="userSpaceOnUse"><stop stop-color="#47484C"/><stop offset="1" stop-color="#39393D"/></linearGradient><linearGradient id="paint9_linear" x1="20" x2="20" y1="4" y2="11.32" gradientUnits="userSpaceOnUse"><stop offset=".02" stop-color="#5A5B61"/><stop offset=".93" stop-color="#47484C"/></linearGradient><linearGradient id="paint10_linear" x1="20" x2="20" y1="3.63" y2="11.7" gradientUnits="userSpaceOnUse"><stop stop-color="#47484C"/><stop offset="1" stop-color="#39393D"/></linearGradient><linearGradient id="paint12_linear" x1="4.58" x2="35.41" y1="33.48" y2="33.48" gradientUnits="userSpaceOnUse"><stop offset=".02" stop-color="#5A5B61"/><stop offset=".93" stop-color="#47484C"/></linearGradient><linearGradient id="paint13_linear" x1="20" x2="20" y1="29.5" y2="37.28" gradientUnits="userSpaceOnUse"><stop offset=".18" stop-color="#47484C"/><stop offset="1" stop-color="#39393D"/></linearGradient><linearGradient id="paint14_linear" x1="12.63" x2="27.36" y1="6.26" y2="6.26" gradientUnits="userSpaceOnUse"><stop stop-color="#47484C"/><stop offset="1" stop-color="#39393D"/></linearGradient><radialGradient id="paint11_radial" cx="0" cy="0" r="1" gradientTransform="matrix(0 -10.28 26.5902 0 20.02 15.38)" gradientUnits="userSpaceOnUse"><stop offset=".54" stop-color="#616369" stop-opacity="0"/><stop offset=".91" stop-color="#8B8B8B"/><stop offset=".96" stop-color="#616369" stop-opacity="0"/></radialGradient></defs></svg>