<svg xmlns="http://www.w3.org/2000/svg" width="40" height="40" fill="none"><rect width="23.25" height="33.25" x="8.38" y="3.38" fill="url(#paint0_linear)" stroke="url(#paint1_linear)" stroke-width=".75" rx="1.63"/><rect width="21" height="31" x="9.5" y="4.5" fill="url(#paint2_linear)" rx="1"/><path fill="#5A5B61" d="M17 30a1 1 0 011-1h4a1 1 0 011 1v1h-6v-1zm-1-13h8v5a4 4 0 01-8 0v-5z"/><path fill="#5A5B61" fill-rule="evenodd" d="M20 24a1 1 0 011 1v5a1 1 0 11-2 0v-5a1 1 0 011-1z" clip-rule="evenodd"/><path stroke="#fff" stroke-linejoin="round" stroke-width=".75" d="M31.25 12.25H8.75"/><path stroke="#BBB" stroke-linecap="round" stroke-linejoin="round" stroke-width=".75" d="M31.5 11.5h-23"/><path stroke="#B1B1B1" stroke-linecap="round" stroke-linejoin="round" stroke-width="2" d="M23 8.5h1m3 0h1"/><path stroke="#fff" stroke-linecap="round" stroke-linejoin="round" stroke-width="2" d="M23 8h1m3 0h1"/><path stroke="#B1B1B1" stroke-linecap="round" stroke-linejoin="round" stroke-width="2" d="M15 8.5h1m3 0h1"/><path stroke="#fff" stroke-linecap="round" stroke-linejoin="round" stroke-width="2" d="M15 8h1m3 0h1"/><defs><linearGradient id="paint0_linear" x1="20" x2="20" y1="3" y2="37" gradientUnits="userSpaceOnUse"><stop offset=".02" stop-color="#fff"/><stop offset=".89" stop-color="#DCDCDC"/><stop offset=".93" stop-color="#F5F3F1"/></linearGradient><linearGradient id="paint1_linear" x1="20" x2="20" y1="3" y2="37" gradientUnits="userSpaceOnUse"><stop stop-color="#C2C2C2"/><stop offset="1" stop-color="#A1A1A1"/></linearGradient><linearGradient id="paint2_linear" x1="20" x2="20" y1="4.5" y2="35.5" gradientUnits="userSpaceOnUse"><stop stop-color="#FAF8F7"/><stop offset="1" stop-color="#E6E6E6"/></linearGradient></defs></svg>