<svg xmlns="http://www.w3.org/2000/svg" width="40" height="40" fill="none"><rect width="11.25" height="14.25" x="14.38" y="23.38" fill="url(#paint0_linear)" rx=".63"/><rect width="11.25" height="14.25" x="14.38" y="23.38" fill="url(#paint1_radial)" rx=".63"/><rect width="11.25" height="14.25" x="14.38" y="23.38" stroke="url(#paint2_linear)" stroke-width=".75" rx=".63"/><circle cx="20" cy="18" r="15.63" fill="url(#paint3_linear)" stroke="url(#paint4_linear)" stroke-width=".75"/><circle cx="20" cy="18" r="15" fill="url(#paint5_linear)"/><circle cx="20" cy="18" r="13.63" fill="url(#paint6_radial)"/><circle cx="20" cy="18" r="13.63" fill="#fff"/><circle cx="20" cy="18" r="13.63" stroke="url(#paint7_linear)" stroke-width=".75"/><path fill="url(#paint8_radial)" fill-rule="evenodd" d="M20.89 7.3a.28.28 0 01.28-.36l1.19.08a4.65 4.65 0 014.05 6.23 4.88 4.88 0 01-2.38 2.69l-2.6 1.32a.58.58 0 01-.8-.76l.11-.24a11.4 11.4 0 00.3-8.53l-.15-.42zm-10.8 6.52a.28.28 0 01-.27-.38l.44-1.1a4.65 4.65 0 017.18-1.93 4.88 4.88 0 011.82 3.09l.45 2.88a.58.58 0 01-.96.52l-.2-.18a11.4 11.4 0 00-8.02-2.92l-.45.02zm2.4 12.43c.16.13.4.05.45-.14l.12-.43a11.4 11.4 0 015.26-6.72l.22-.14a.58.58 0 00-.2-1.08l-2.87-.45a4.88 4.88 0 00-3.5.77 4.65 4.65 0 00-.39 7.42l.91.77zm13.01.94a.28.28 0 010 .47l-1.01.63a4.65 4.65 0 01-6.94-2.66 4.88 4.88 0 01.34-3.57l1.33-2.6a.58.58 0 011.09.15l.05.26a11.4 11.4 0 004.77 7.07l.37.25zm5.36-11.47a.28.28 0 00-.44-.15l-.35.28a11.4 11.4 0 01-8.2 2.35l-.27-.03a.58.58 0 00-.47 1l2.06 2.05a4.88 4.88 0 003.29 1.43 4.65 4.65 0 004.67-5.77l-.29-1.16z" clip-rule="evenodd"/><path fill="url(#paint9_radial)" fill-rule="evenodd" d="M20.89 7.3a.28.28 0 01.28-.36l1.19.08a4.65 4.65 0 014.05 6.23 4.88 4.88 0 01-2.38 2.69l-2.6 1.32a.58.58 0 01-.8-.76l.11-.24a11.4 11.4 0 00.3-8.53l-.15-.42zm-10.8 6.52a.28.28 0 01-.27-.38l.44-1.1a4.65 4.65 0 017.18-1.93 4.88 4.88 0 011.82 3.09l.45 2.88a.58.58 0 01-.96.52l-.2-.18a11.4 11.4 0 00-8.02-2.92l-.45.02zm2.4 12.43c.16.13.4.05.45-.14l.12-.43a11.4 11.4 0 015.26-6.72l.22-.14a.58.58 0 00-.2-1.08l-2.87-.45a4.88 4.88 0 00-3.5.77 4.65 4.65 0 00-.39 7.42l.91.77zm13.01.94a.28.28 0 010 .47l-1.01.63a4.65 4.65 0 01-6.94-2.66 4.88 4.88 0 01.34-3.57l1.33-2.6a.58.58 0 011.09.15l.05.26a11.4 11.4 0 004.77 7.07l.37.25zm5.36-11.47a.28.28 0 00-.44-.15l-.35.28a11.4 11.4 0 01-8.2 2.35l-.27-.03a.58.58 0 00-.47 1l2.06 2.05a4.88 4.88 0 003.29 1.43 4.65 4.65 0 004.67-5.77l-.29-1.16z" clip-rule="evenodd"/><circle cx="20" cy="18" r="3" fill="url(#paint10_linear)"/><path fill="url(#paint11_radial)" d="M17 18c0-1.66 1.27-3 2.83-3h.34c1.56 0 2.83 1.34 2.83 3s-1.27 3-2.83 3h-.34A2.92 2.92 0 0117 18z"/><defs><linearGradient id="paint0_linear" x1="20" x2="20" y1="23" y2="38" gradientUnits="userSpaceOnUse"><stop offset=".02" stop-color="#fff"/><stop offset=".89" stop-color="#DCDCDC"/><stop offset=".93" stop-color="#F5F3F1"/></linearGradient><linearGradient id="paint2_linear" x1="20" x2="20" y1="23" y2="38" gradientUnits="userSpaceOnUse"><stop stop-color="#C2C2C2"/><stop offset="1" stop-color="#A1A1A1"/></linearGradient><linearGradient id="paint3_linear" x1="20" x2="20" y1="2" y2="34" gradientUnits="userSpaceOnUse"><stop offset=".02" stop-color="#fff"/><stop offset=".89" stop-color="#DCDCDC"/><stop offset=".93" stop-color="#F5F3F1"/></linearGradient><linearGradient id="paint4_linear" x1="20" x2="20" y1="2" y2="34" gradientUnits="userSpaceOnUse"><stop stop-color="#C2C2C2"/><stop offset="1" stop-color="#A1A1A1"/></linearGradient><linearGradient id="paint5_linear" x1="20" x2="20" y1="3" y2="33" gradientUnits="userSpaceOnUse"><stop stop-color="#FAF8F7"/><stop offset="1" stop-color="#E6E6E6"/></linearGradient><linearGradient id="paint7_linear" x1="20" x2="20" y1="4" y2="32" gradientUnits="userSpaceOnUse"><stop offset=".43" stop-color="#B0B0B0"/><stop offset=".86" stop-color="#C9C9C9"/></linearGradient><linearGradient id="paint10_linear" x1="20" x2="20" y1="15" y2="21" gradientUnits="userSpaceOnUse"><stop stop-color="#5A5B61"/><stop offset="1" stop-color="#47484C"/></linearGradient><radialGradient id="paint1_radial" cx="0" cy="0" r="1" gradientTransform="matrix(0 17.5 -14 0 20 20.5)" gradientUnits="userSpaceOnUse"><stop offset=".51" stop-color="#39393D"/><stop offset="1" stop-color="#CECECE" stop-opacity="0"/></radialGradient><radialGradient id="paint6_radial" cx="0" cy="0" r="1" gradientTransform="matrix(0 14 -14 0 20 18)" gradientUnits="userSpaceOnUse"><stop stop-color="#B0B0B0"/><stop offset="1" stop-color="#C9C9C9"/></radialGradient><radialGradient id="paint8_radial" cx="0" cy="0" r="1" gradientTransform="matrix(0 -7.88649 7.99846 0 19.97 18)" gradientUnits="userSpaceOnUse"><stop stop-color="#47484C"/><stop offset="1" stop-color="#5A5B61"/></radialGradient><radialGradient id="paint9_radial" cx="0" cy="0" r="1" gradientTransform="matrix(0 6.06653 -5.90965 0 19.97 19.21)" gradientUnits="userSpaceOnUse"><stop offset=".52" stop-color="#39393D"/><stop offset="1" stop-color="#39393D" stop-opacity="0"/></radialGradient><radialGradient id="paint11_radial" cx="0" cy="0" r="1" gradientTransform="matrix(0 -4.73684 3.88762 0 20 19.42)" gradientUnits="userSpaceOnUse"><stop offset=".53" stop-color="#616369" stop-opacity="0"/><stop offset=".91" stop-color="#8B8B8B"/><stop offset=".96" stop-color="#616369" stop-opacity="0"/></radialGradient></defs></svg>