<svg xmlns="http://www.w3.org/2000/svg" width="40" height="40" fill="none"><path fill="url(#paint0_linear)" stroke="url(#paint1_linear)" stroke-width=".75" d="M9.38 25a10.63 10.63 0 1121.25 0 10.63 10.63 0 01-21.25 0z"/><path fill="url(#paint2_radial)" d="M11 24.5a8.5 8.5 0 018.5-8.5h1a8.5 8.5 0 010 17h-1a8.5 8.5 0 01-8.5-8.5z"/><path stroke="#6839CF" stroke-linecap="round" stroke-linejoin="round" stroke-width="2" d="M8.89 8.97a15.28 15.28 0 0122.22-.03" opacity=".6"/><path stroke="#6839CF" stroke-linecap="round" stroke-linejoin="round" stroke-width="2" d="M13.05 11.94A10.74 10.74 0 0120 9.17a10.67 10.67 0 016.94 2.77"/><defs><linearGradient id="paint0_linear" x1="20" x2="20" y1="14" y2="36" gradientUnits="userSpaceOnUse"><stop offset=".02" stop-color="#5A5B61"/><stop offset=".93" stop-color="#47484C"/></linearGradient><linearGradient id="paint1_linear" x1="20" x2="20" y1="14" y2="36" gradientUnits="userSpaceOnUse"><stop stop-color="#47484C"/><stop offset="1" stop-color="#39393D"/></linearGradient><radialGradient id="paint2_radial" cx="0" cy="0" r="1" gradientTransform="matrix(0 -13.4211 11.6628 0 20 28.53)" gradientUnits="userSpaceOnUse"><stop offset=".53" stop-color="#616369" stop-opacity="0"/><stop offset=".91" stop-color="#8B8B8B"/><stop offset=".96" stop-color="#616369" stop-opacity="0"/></radialGradient></defs></svg>