<svg xmlns="http://www.w3.org/2000/svg" width="40" height="40" fill="none"><path fill="url(#paint0_linear)" stroke="url(#paint1_linear)" stroke-width=".75" d="M28.38 9c0-.34.28-.63.62-.63h5c.34 0 .63.29.63.63v22c0 .34-.29.63-.63.63h-5a.63.63 0 01-.63-.63V9z"/><circle cx="31.5" cy="18.5" r="3.13" fill="#47484C"/><circle cx="31.5" cy="18.5" r="3.13" fill="url(#paint2_radial)"/><circle cx="31.5" cy="18.5" r="3.13" stroke="#39393D" stroke-width=".75"/><circle cx="33" cy="10" r="1" fill="#FF6757"/><rect width="19.25" height="19.25" x="5.38" y="12.38" fill="url(#paint3_linear)" stroke="url(#paint4_linear)" stroke-width=".75" rx="1.63"/><rect width="17" height="17" x="6.5" y="13.5" fill="url(#paint5_linear)" rx="1"/><path stroke="#B0B0B0" stroke-linecap="round" stroke-linejoin="round" d="M12.5 19.5v5m3.5-5l1.5 5 1.5-5m-5 0h-3"/><defs><linearGradient id="paint0_linear" x1="31.5" x2="31.5" y1="8" y2="32" gradientUnits="userSpaceOnUse"><stop offset=".46" stop-color="#5A5B61"/><stop offset="1" stop-color="#39393D"/></linearGradient><linearGradient id="paint1_linear" x1="31.5" x2="31.5" y1="8" y2="32" gradientUnits="userSpaceOnUse"><stop stop-color="#47484C"/><stop offset="1" stop-color="#39393D"/></linearGradient><linearGradient id="paint3_linear" x1="15" x2="15" y1="12" y2="32" gradientUnits="userSpaceOnUse"><stop offset=".02" stop-color="#fff"/><stop offset=".89" stop-color="#DCDCDC"/><stop offset=".93" stop-color="#F5F3F1"/></linearGradient><linearGradient id="paint4_linear" x1="15" x2="15" y1="12" y2="32" gradientUnits="userSpaceOnUse"><stop stop-color="#C2C2C2"/><stop offset="1" stop-color="#A1A1A1"/></linearGradient><linearGradient id="paint5_linear" x1="15" x2="15" y1="13.5" y2="30.5" gradientUnits="userSpaceOnUse"><stop stop-color="#FAF8F7"/><stop offset="1" stop-color="#E6E6E6"/></linearGradient><radialGradient id="paint2_radial" cx="0" cy="0" r="1" gradientTransform="matrix(0 4.5 -3.69324 0 31.5 18)" gradientUnits="userSpaceOnUse"><stop offset=".36" stop-color="#616369" stop-opacity="0"/><stop offset=".91" stop-color="#8B8B8B"/><stop offset=".96" stop-color="#616369" stop-opacity="0"/></radialGradient></defs></svg>