<svg xmlns="http://www.w3.org/2000/svg" width="40" height="40" fill="none"><path fill="#39393D" d="M10.5 32h-4a.5.5 0 01-.5-.5v-2a.5.5 0 01.5-.5h4a.5.5 0 01.5.5v2a.5.5 0 01-.5.5zm23 0h-4a.5.5 0 01-.5-.5v-2a.5.5 0 01.5-.5h4a.5.5 0 01.5.5v2a.5.5 0 01-.5.5z"/><rect width="33.25" height="19.25" x="3.38" y="10.38" fill="url(#paint0_linear)" stroke="url(#paint1_linear)" stroke-width=".75" rx="1.63"/><rect width="31" height="17" x="4.5" y="11.5" fill="url(#paint2_linear)" rx="1"/><circle cx="30.5" cy="21.5" r="6.5" fill="url(#paint3_radial)" opacity=".8"/><path fill="#EBE9E7" stroke="url(#paint4_linear)" stroke-width=".75" d="M26.38 19.5a4.13 4.13 0 118.25 0 4.13 4.13 0 01-8.26 0z"/><circle cx="32.5" cy="17.5" r=".5" fill="#39393D"/><path stroke="#B1B1B1" stroke-linecap="round" stroke-linejoin="round" stroke-width="2" d="M7 23.5h1m3 0h1m3 0h1m3 0h1"/><path stroke="#fff" stroke-linecap="round" stroke-linejoin="round" stroke-width="2" d="M7 23h1m3 0h1m3 0h1m3 0h1"/><mask id="a" fill="#fff"><rect width="15" height="5" x="6" y="16" rx=".5"/></mask><rect width="15" height="5" x="6" y="16" fill="url(#paint5_linear)" stroke="url(#paint6_linear)" stroke-width="1.5" mask="url(#a)" rx=".5"/><defs><linearGradient id="paint0_linear" x1="20" x2="20" y1="10" y2="30" gradientUnits="userSpaceOnUse"><stop offset=".02" stop-color="#fff"/><stop offset=".89" stop-color="#DCDCDC"/><stop offset=".93" stop-color="#F5F3F1"/></linearGradient><linearGradient id="paint1_linear" x1="20" x2="20" y1="10" y2="30" gradientUnits="userSpaceOnUse"><stop stop-color="#C2C2C2"/><stop offset="1" stop-color="#A1A1A1"/></linearGradient><linearGradient id="paint2_linear" x1="20" x2="20" y1="11.5" y2="28.5" gradientUnits="userSpaceOnUse"><stop stop-color="#FAF8F7"/><stop offset="1" stop-color="#E6E6E6"/></linearGradient><linearGradient id="paint4_linear" x1="30.5" x2="30.5" y1="15" y2="24" gradientUnits="userSpaceOnUse"><stop offset=".3" stop-color="#fff"/><stop offset=".64" stop-color="#B1B1B1"/></linearGradient><linearGradient id="paint5_linear" x1="13.5" x2="13.5" y1="16" y2="21" gradientUnits="userSpaceOnUse"><stop offset=".02" stop-color="#5A5B61"/><stop offset=".93" stop-color="#47484C"/></linearGradient><linearGradient id="paint6_linear" x1="13.5" x2="13.5" y1="16" y2="21" gradientUnits="userSpaceOnUse"><stop stop-color="#47484C"/><stop offset="1" stop-color="#39393D"/></linearGradient><radialGradient id="paint3_radial" cx="0" cy="0" r="1" gradientTransform="rotate(90 4.5 26) scale(6.5)" gradientUnits="userSpaceOnUse"><stop stop-color="#39393D"/><stop offset=".57" stop-color="#39393D" stop-opacity=".25"/><stop offset=".67" stop-color="#39393D" stop-opacity=".15"/><stop offset=".74" stop-color="#39393D" stop-opacity=".11"/><stop offset=".83" stop-color="#39393D" stop-opacity=".05"/><stop offset=".92" stop-color="#39393D" stop-opacity=".02"/><stop offset="1" stop-color="#39393D" stop-opacity="0"/></radialGradient></defs></svg>