<svg xmlns="http://www.w3.org/2000/svg" width="40" height="40" fill="none"><rect width="22" height="28" x="9" y="4" fill="url(#paint0_linear)" rx="1"/><path fill="url(#paint1_linear)" d="M10 4h.81a1 1 0 01.36.07l12.19 4.68a1 1 0 01.64.94v26.53a1 1 0 01-.76.97l-.9.23a1 1 0 01-.65-.06l-11.1-4.85a1 1 0 01-.59-.91V4z"/><path fill="url(#paint2_linear)" stroke="url(#paint3_linear)" stroke-width=".75" d="M9.38 4.98c0-.44.44-.75.85-.58l12 4.8a.63.63 0 01.4.59v26.73a.63.63 0 01-.86.58l-12-4.8a.63.63 0 01-.4-.59V4.98z"/><path fill="url(#paint4_linear)" d="M10 5.74a.5.5 0 01.68-.47l11 4.36a.5.5 0 01.32.46v25.67a.5.5 0 01-.68.47l-11-4.35a.5.5 0 01-.32-.47V5.74z"/><path fill="url(#paint5_linear)" d="M18.38 21.39c0-.43.41-.73.82-.6l1 .34a.63.63 0 01.43.6v3.38a.63.63 0 01-.83.6l-1-.34a.63.63 0 01-.43-.6V21.4z"/><path fill="url(#paint6_radial)" d="M18.38 21.39c0-.43.41-.73.82-.6l1 .34a.63.63 0 01.43.6v3.38a.63.63 0 01-.83.6l-1-.34a.63.63 0 01-.43-.6V21.4z"/><path stroke="url(#paint7_linear)" stroke-width=".75" d="M18.38 21.39c0-.43.41-.73.82-.6l1 .34a.63.63 0 01.43.6v3.38a.63.63 0 01-.83.6l-1-.34a.63.63 0 01-.43-.6V21.4z"/><path fill="url(#paint8_linear)" d="M15.36 23.1l4 1.2a.5.5 0 00.64-.47v-.46a.5.5 0 00-.36-.48l-4-1.2a.5.5 0 00-.64.48v.46a.5.5 0 00.36.48z"/><defs><linearGradient id="paint0_linear" x1="31" x2="23.5" y1="14.62" y2="14.62" gradientUnits="userSpaceOnUse"><stop stop-color="#47484C"/><stop offset="1" stop-color="#39393D"/></linearGradient><linearGradient id="paint1_linear" x1="17" x2="17" y1="4" y2="37.5" gradientUnits="userSpaceOnUse"><stop stop-color="#C2C2C2"/><stop offset="1" stop-color="#A1A1A1"/></linearGradient><linearGradient id="paint2_linear" x1="17.23" x2="8.08" y1="8.02" y2="31.53" gradientUnits="userSpaceOnUse"><stop offset=".02" stop-color="#fff"/><stop offset=".96" stop-color="#DCDCDC"/></linearGradient><linearGradient id="paint3_linear" x1="16" x2="16" y1="3.5" y2="38" gradientUnits="userSpaceOnUse"><stop stop-color="#C2C2C2"/><stop offset="1" stop-color="#A1A1A1"/></linearGradient><linearGradient id="paint4_linear" x1="15.75" x2="15.75" y1="5.75" y2="32.25" gradientUnits="userSpaceOnUse"><stop stop-color="#FAF8F7"/><stop offset="1" stop-color="#E6E6E6"/></linearGradient><linearGradient id="paint5_linear" x1="19.5" x2="19.5" y1="20" y2="26.5" gradientUnits="userSpaceOnUse"><stop offset=".02" stop-color="#5A5B61"/><stop offset=".93" stop-color="#47484C"/></linearGradient><linearGradient id="paint7_linear" x1="19.5" x2="19.5" y1="20" y2="26.5" gradientUnits="userSpaceOnUse"><stop stop-color="#47484C"/><stop offset="1" stop-color="#39393D"/></linearGradient><linearGradient id="paint8_linear" x1="17.5" x2="17.5" y1="21.5" y2="24" gradientUnits="userSpaceOnUse"><stop offset=".02" stop-color="#47484C"/><stop offset=".93" stop-color="#39393D"/></linearGradient><radialGradient id="paint6_radial" cx="0" cy="0" r="1" gradientTransform="matrix(0 -1.5 1.0625 0 19.5 24)" gradientUnits="userSpaceOnUse"><stop stop-color="#39393D"/><stop offset="1" stop-color="#39393D" stop-opacity="0"/></radialGradient></defs></svg>