<svg xmlns="http://www.w3.org/2000/svg" width="40" height="40" fill="none"><path fill="#39393D" d="M14.5 37h-4a.5.5 0 01-.5-.5v-2a.5.5 0 01.5-.5h4a.5.5 0 01.5.5v2a.5.5 0 01-.5.5zm15 0h-4a.5.5 0 01-.5-.5v-2a.5.5 0 01.5-.5h4a.5.5 0 01.5.5v2a.5.5 0 01-.5.5z"/><path fill="url(#paint0_linear)" stroke="url(#paint1_linear)" stroke-width=".75" d="M8.38 6A2.63 2.63 0 0111 3.37h18A2.63 2.63 0 0131.63 6v27A2.63 2.63 0 0129 35.63H11A2.63 2.63 0 018.37 33V6z"/><path fill="url(#paint2_linear)" d="M9.5 6.5a2 2 0 012-2h17a2 2 0 012 2v26a2 2 0 01-2 2h-17a2 2 0 01-2-2v-26z"/><circle cx="20" cy="15" r="8.63" fill="url(#paint3_radial)" stroke="url(#paint4_linear)" stroke-width=".75"/><circle cx="20" cy="32.5" r=".75" fill="#66686E" opacity=".5"/><circle cx="17.5" cy="32.5" r=".75" fill="#66686E" opacity=".5"/><circle cx="12.5" cy="32.5" r=".75" fill="#66686E" opacity=".5"/><circle cx="15" cy="32.5" r=".75" fill="#66686E" opacity=".5"/><circle cx="25" cy="32.5" r=".75" fill="#66686E" opacity=".5"/><circle cx="22.5" cy="32.5" r=".75" fill="#66686E" opacity=".5"/><circle cx="27.5" cy="32.5" r=".75" fill="#66686E" opacity=".5"/><circle cx="20" cy="29.5" r=".75" fill="#66686E" opacity=".5"/><circle cx="17.5" cy="29.5" r=".75" fill="#66686E" opacity=".5"/><circle cx="12.5" cy="29.5" r=".75" fill="#66686E" opacity=".5"/><circle cx="15" cy="29.5" r=".75" fill="#66686E" opacity=".5"/><circle cx="25" cy="29.5" r=".75" fill="#66686E" opacity=".5"/><circle cx="22.5" cy="29.5" r=".75" fill="#66686E" opacity=".5"/><circle cx="27.5" cy="29.5" r=".75" fill="#66686E" opacity=".5"/><path fill="url(#paint5_radial)" d="M20.43 9.2a.15.15 0 01.15-.2l.64.05a2.53 2.53 0 012.17 3.38 2.64 2.64 0 01-1.28 1.46l-1.38.72c-.27.14-.55-.14-.43-.41l.06-.13a6.3 6.3 0 00.16-4.64l-.09-.23z"/><path fill="url(#paint6_radial)" d="M20.43 9.2a.15.15 0 01.15-.2l.64.05a2.53 2.53 0 012.17 3.38 2.64 2.64 0 01-1.28 1.46l-1.38.72c-.27.14-.55-.14-.43-.41l.06-.13a6.3 6.3 0 00.16-4.64l-.09-.23z"/><path fill="url(#paint7_radial)" d="M14.65 12.74a.15.15 0 01-.14-.2l.24-.6a2.47 2.47 0 013.84-1.05c.52.41.87 1.01.97 1.68l.25 1.56c.04.3-.3.49-.52.29l-.1-.1a6.04 6.04 0 00-4.3-1.58h-.24z"/><path fill="url(#paint8_radial)" d="M14.65 12.74a.15.15 0 01-.14-.2l.24-.6a2.47 2.47 0 013.84-1.05c.52.41.87 1.01.97 1.68l.25 1.56c.04.3-.3.49-.52.29l-.1-.1a6.04 6.04 0 00-4.3-1.58h-.24z"/><path fill="url(#paint9_radial)" d="M16.18 19.43a.15.15 0 01-.24.07l-.49-.41a2.56 2.56 0 01.21-4.04 2.58 2.58 0 011.87-.42l1.54.25c.3.04.36.44.1.58l-.11.08a6.18 6.18 0 00-2.81 3.65l-.07.24z"/><path fill="url(#paint10_radial)" d="M16.18 19.43a.15.15 0 01-.24.07l-.49-.41a2.56 2.56 0 01.21-4.04 2.58 2.58 0 011.87-.42l1.54.25c.3.04.36.44.1.58l-.11.08a6.18 6.18 0 00-2.81 3.65l-.07.24z"/><path fill="url(#paint11_radial)" d="M22.9 20.02a.15.15 0 010 .25l-.54.34c-1.4.9-3.25.17-3.71-1.44a2.7 2.7 0 01.18-1.94l.71-1.41a.31.31 0 01.58.07l.03.14a6.2 6.2 0 002.55 3.85l.2.14z"/><path fill="url(#paint12_radial)" d="M22.9 20.02a.15.15 0 010 .25l-.54.34c-1.4.9-3.25.17-3.71-1.44a2.7 2.7 0 01.18-1.94l.71-1.41a.31.31 0 01.58.07l.03.14a6.2 6.2 0 002.55 3.85l.2.14z"/><path fill="url(#paint13_radial)" d="M25.54 13.7a.15.15 0 01.23.08l.16.63c.4 1.63-.85 3.2-2.5 3.14a2.6 2.6 0 01-1.76-.78l-1.1-1.12c-.21-.21-.05-.57.25-.54l.14.01a6.03 6.03 0 004.39-1.27l.19-.15z"/><path fill="url(#paint14_radial)" d="M25.54 13.7a.15.15 0 01.23.08l.16.63c.4 1.63-.85 3.2-2.5 3.14a2.6 2.6 0 01-1.76-.78l-1.1-1.12c-.21-.21-.05-.57.25-.54l.14.01a6.03 6.03 0 004.39-1.27l.19-.15z"/><circle cx="20" cy="15" r="2" fill="url(#paint15_linear)"/><defs><radialGradient id="paint3_radial" cx="0" cy="0" r="1" gradientTransform="matrix(0 9 -9 0 20 15)" gradientUnits="userSpaceOnUse"><stop stop-color="#A1A1A1"/><stop offset="1" stop-color="#EBE9E7"/></radialGradient><radialGradient id="paint5_radial" cx="0" cy="0" r="1" gradientTransform="matrix(0 -4.28908 4.27939 0 19.94 15.02)" gradientUnits="userSpaceOnUse"><stop stop-color="#47484C"/><stop offset="1" stop-color="#5A5B61"/></radialGradient><radialGradient id="paint6_radial" cx="0" cy="0" r="1" gradientTransform="matrix(0 3.29929 -3.16182 0 19.94 15.02)" gradientUnits="userSpaceOnUse"><stop offset=".75" stop-color="#39393D"/><stop offset="1" stop-color="#39393D" stop-opacity="0"/></radialGradient><radialGradient id="paint7_radial" cx="0" cy="0" r="1" gradientTransform="matrix(0 -4.28908 4.27939 0 19.94 15.02)" gradientUnits="userSpaceOnUse"><stop stop-color="#47484C"/><stop offset="1" stop-color="#5A5B61"/></radialGradient><radialGradient id="paint8_radial" cx="0" cy="0" r="1" gradientTransform="matrix(0 3.29929 -3.16182 0 19.94 15.02)" gradientUnits="userSpaceOnUse"><stop offset=".75" stop-color="#39393D"/><stop offset="1" stop-color="#39393D" stop-opacity="0"/></radialGradient><radialGradient id="paint9_radial" cx="0" cy="0" r="1" gradientTransform="matrix(0 -4.28908 4.27939 0 19.94 15.02)" gradientUnits="userSpaceOnUse"><stop stop-color="#47484C"/><stop offset="1" stop-color="#5A5B61"/></radialGradient><radialGradient id="paint10_radial" cx="0" cy="0" r="1" gradientTransform="matrix(0 3.29929 -3.16182 0 19.94 15.02)" gradientUnits="userSpaceOnUse"><stop offset=".75" stop-color="#39393D"/><stop offset="1" stop-color="#39393D" stop-opacity="0"/></radialGradient><radialGradient id="paint11_radial" cx="0" cy="0" r="1" gradientTransform="matrix(0 -4.28908 4.27939 0 19.94 15.02)" gradientUnits="userSpaceOnUse"><stop stop-color="#47484C"/><stop offset="1" stop-color="#5A5B61"/></radialGradient><radialGradient id="paint12_radial" cx="0" cy="0" r="1" gradientTransform="matrix(0 3.29929 -3.16182 0 19.94 15.02)" gradientUnits="userSpaceOnUse"><stop offset=".75" stop-color="#39393D"/><stop offset="1" stop-color="#39393D" stop-opacity="0"/></radialGradient><radialGradient id="paint13_radial" cx="0" cy="0" r="1" gradientTransform="matrix(0 -4.28908 4.27939 0 19.94 15.02)" gradientUnits="userSpaceOnUse"><stop stop-color="#47484C"/><stop offset="1" stop-color="#5A5B61"/></radialGradient><radialGradient id="paint14_radial" cx="0" cy="0" r="1" gradientTransform="matrix(0 3.29929 -3.16182 0 19.94 15.02)" gradientUnits="userSpaceOnUse"><stop offset=".75" stop-color="#39393D"/><stop offset="1" stop-color="#39393D" stop-opacity="0"/></radialGradient><linearGradient id="paint0_linear" x1="20" x2="20" y1="3" y2="36" gradientUnits="userSpaceOnUse"><stop offset=".02" stop-color="#fff"/><stop offset=".89" stop-color="#DCDCDC"/><stop offset=".93" stop-color="#F5F3F1"/></linearGradient><linearGradient id="paint1_linear" x1="20" x2="20" y1="3" y2="36" gradientUnits="userSpaceOnUse"><stop stop-color="#C2C2C2"/><stop offset="1" stop-color="#A1A1A1"/></linearGradient><linearGradient id="paint2_linear" x1="20" x2="20" y1="4.5" y2="34.5" gradientUnits="userSpaceOnUse"><stop stop-color="#FAF8F7"/><stop offset="1" stop-color="#E6E6E6"/></linearGradient><linearGradient id="paint4_linear" x1="20" x2="20" y1="6" y2="24" gradientUnits="userSpaceOnUse"><stop offset=".42" stop-color="#7B7C81"/><stop offset=".8" stop-color="#fff"/></linearGradient><linearGradient id="paint15_linear" x1="20" x2="20" y1="9.5" y2="17" gradientUnits="userSpaceOnUse"><stop stop-color="#A1A1A1"/><stop offset="1" stop-color="#47484C"/></linearGradient></defs></svg>