<svg xmlns="http://www.w3.org/2000/svg" width="40" height="40" fill="none"><path fill="#39393D" d="M29.1 34.84H10.9c-.26 0-.47.23-.47.52v2.11c0 .3.21.53.48.53h3.83c.23 0 .42-.2.46-.44h9.6c.04.25.23.44.46.44h3.83c.27 0 .48-.24.48-.53v-2.1c0-.3-.21-.53-.48-.53z"/><path fill="url(#paint0_linear)" stroke="url(#paint1_linear)" stroke-width=".75" d="M10.54 3h18.92c.85 0 1.54.72 1.54 1.61V34.4c0 .89-.69 1.61-1.54 1.61H10.54A1.6 1.6 0 019 34.39V4.6c0-.88.69-1.6 1.54-1.6z"/><path fill="url(#paint2_linear)" d="M10.95 4h18.1c.52 0 .95.45.95 1v29c0 .55-.43 1-.95 1h-18.1a.98.98 0 01-.95-1V5c0-.55.43-1 .95-1z"/><path stroke="#fff" stroke-linejoin="round" stroke-width=".75" d="M30.55 13.77H9.45"/><path stroke="#BBB" stroke-linecap="round" stroke-linejoin="round" stroke-width=".75" d="M30.8 13.08H9.2"/><path stroke="#AFAFAF" stroke-linecap="round" stroke-linejoin="round" stroke-width="2" d="M12.05 15.96v15.76"/><defs><linearGradient id="paint0_linear" x1="20" x2="20" y1="2.63" y2="36.37" gradientUnits="userSpaceOnUse"><stop offset=".02" stop-color="#fff"/><stop offset=".89" stop-color="#DCDCDC"/><stop offset=".93" stop-color="#F5F3F1"/></linearGradient><linearGradient id="paint1_linear" x1="20" x2="20" y1="2.62" y2="36.38" gradientUnits="userSpaceOnUse"><stop offset=".11" stop-color="#C2C2C2"/><stop offset="1" stop-color="#A1A1A1"/></linearGradient><linearGradient id="paint2_linear" x1="20" x2="20" y1="4" y2="35" gradientUnits="userSpaceOnUse"><stop stop-color="#FAF8F7"/><stop offset="1" stop-color="#E6E6E6"/></linearGradient></defs></svg>