<svg xmlns="http://www.w3.org/2000/svg" width="40" height="40" fill="none"><rect width="19.25" height="32.25" x="8.38" y="3.38" fill="url(#paint0_linear)" stroke="url(#paint1_linear)" stroke-width=".75" rx="2.63"/><rect width="18" height="31" x="9" y="4" fill="url(#paint2_linear)" rx="2"/><circle cx="18" cy="11" r="5" fill="url(#paint3_radial)"/><circle cx="18" cy="10" r="4" fill="#fff"/><circle cx="18" cy="10" r="2.63" fill="url(#paint4_linear)" stroke="url(#paint5_linear)" stroke-width=".75"/><circle cx="18" cy="10" r="1" fill="#39393D"/><circle cx="18" cy="24.5" r="7.5" fill="url(#paint6_radial)"/><circle cx="18" cy="23" r="7" fill="#fff"/><circle cx="18" cy="23" r="5.63" fill="url(#paint7_linear)"/><circle cx="18" cy="23" r="5.63" fill="url(#paint8_radial)"/><circle cx="18" cy="23" r="5.63" fill="url(#paint9_radial)"/><circle cx="18" cy="23" r="5.63" stroke="url(#paint10_linear)" stroke-width=".75"/><circle cx="18" cy="23" r="2.63" fill="url(#paint11_linear)" stroke="url(#paint12_linear)" stroke-width=".75"/><circle cx="18" cy="23" r="2.5" fill="url(#paint13_radial)"/><circle cx="27" cy="33" r="3" fill="#fff"/><path fill="url(#paint14_linear)" fill-rule="evenodd" d="M27 28a5 5 0 100 10 5 5 0 000-10zm0 7.19c-.97 0-1.93-.22-2.29-.58-.9-.88 1.28-4.28 2.29-4.29 1.01 0 3.18 3.4 2.29 4.3-.36.35-1.32.56-2.29.57z" clip-rule="evenodd"/><defs><linearGradient id="paint0_linear" x1="18" x2="18" y1="3" y2="36" gradientUnits="userSpaceOnUse"><stop offset=".02" stop-color="#fff"/><stop offset=".89" stop-color="#DCDCDC"/><stop offset=".93" stop-color="#F5F3F1"/></linearGradient><linearGradient id="paint1_linear" x1="18" x2="18" y1="3" y2="36" gradientUnits="userSpaceOnUse"><stop stop-color="#C2C2C2"/><stop offset="1" stop-color="#A1A1A1"/></linearGradient><linearGradient id="paint2_linear" x1="18" x2="18" y1="4" y2="35" gradientUnits="userSpaceOnUse"><stop stop-color="#FAF8F7"/><stop offset="1" stop-color="#E6E6E6"/></linearGradient><linearGradient id="paint4_linear" x1="18" x2="18" y1="7" y2="13" gradientUnits="userSpaceOnUse"><stop offset=".02" stop-color="#5A5B61"/><stop offset=".93" stop-color="#47484C"/></linearGradient><linearGradient id="paint5_linear" x1="18" x2="18" y1="7" y2="13" gradientUnits="userSpaceOnUse"><stop stop-color="#47484C"/><stop offset="1" stop-color="#39393D"/></linearGradient><linearGradient id="paint7_linear" x1="18" x2="18" y1="17" y2="29" gradientUnits="userSpaceOnUse"><stop offset=".02" stop-color="#5A5B61"/><stop offset=".93" stop-color="#47484C"/></linearGradient><linearGradient id="paint10_linear" x1="18" x2="18" y1="17" y2="29" gradientUnits="userSpaceOnUse"><stop stop-color="#47484C"/><stop offset="1" stop-color="#39393D"/></linearGradient><linearGradient id="paint11_linear" x1="18" x2="18" y1="20" y2="26" gradientUnits="userSpaceOnUse"><stop offset=".02" stop-color="#47484C"/><stop offset=".93" stop-color="#39393D"/></linearGradient><linearGradient id="paint12_linear" x1="18" x2="18" y1="20" y2="26" gradientUnits="userSpaceOnUse"><stop stop-color="#47484C"/><stop offset="1" stop-color="#39393D"/></linearGradient><linearGradient id="paint14_linear" x1="26.92" x2="36.76" y1="42.92" y2="33.08" gradientUnits="userSpaceOnUse"><stop stop-color="#C926FF"/><stop offset="1" stop-color="#4A26FF"/></linearGradient><radialGradient id="paint3_radial" cx="0" cy="0" r="1" gradientTransform="matrix(0 5 -5 0 18 11)" gradientUnits="userSpaceOnUse"><stop offset=".25" stop-color="#39393D"/><stop offset="1" stop-color="#CECECE" stop-opacity="0"/></radialGradient><radialGradient id="paint6_radial" cx="0" cy="0" r="1" gradientTransform="matrix(0 7.5 -7.5 0 18 24.5)" gradientUnits="userSpaceOnUse"><stop offset=".25" stop-color="#39393D"/><stop offset="1" stop-color="#CECECE" stop-opacity="0"/></radialGradient><radialGradient id="paint8_radial" cx="0" cy="0" r="1" gradientTransform="matrix(0 4 -4 0 18 26.5)" gradientUnits="userSpaceOnUse"><stop stop-color="#fff" stop-opacity=".31"/><stop offset="1" stop-color="#fff" stop-opacity="0"/></radialGradient><radialGradient id="paint9_radial" cx="0" cy="0" r="1" gradientTransform="matrix(0 4 -4 0 18 19)" gradientUnits="userSpaceOnUse"><stop stop-color="#39393D"/><stop offset="1" stop-color="#39393D" stop-opacity="0"/></radialGradient><radialGradient id="paint13_radial" cx="0" cy="0" r="1" gradientTransform="matrix(0 -3.94737 3.23968 0 18 24.18)" gradientUnits="userSpaceOnUse"><stop offset=".38" stop-color="#616369" stop-opacity="0"/><stop offset=".83" stop-color="#8B8B8B" stop-opacity=".49"/><stop offset=".96" stop-color="#39393D"/></radialGradient></defs></svg>