<svg xmlns="http://www.w3.org/2000/svg" width="40" height="40" fill="none"><path fill="url(#paint0_linear)" stroke="url(#paint1_linear)" stroke-width=".75" d="M4.38 8A3.63 3.63 0 018 4.37h24A3.63 3.63 0 0135.63 8v24A3.63 3.63 0 0132 35.63H8A3.63 3.63 0 014.37 32V8z"/><path fill="url(#paint2_linear)" d="M5.5 8.5c0-1.66 1.3-3 2.9-3h23.2c1.6 0 2.9 1.34 2.9 3v23c0 1.66-1.3 3-2.9 3H8.4c-1.6 0-2.9-1.34-2.9-3v-23z"/><path fill="url(#paint3_linear)" stroke="url(#paint4_linear)" d="M8.5 20.5a6 6 0 016-6h11a6 6 0 010 12h-11a6 6 0 01-6-6z"/><path fill="#B6B6B6" d="M21 20a5 5 0 1110 0 5 5 0 01-10 0z"/><path fill="#fff" d="M25.84 25a5 5 0 01-1.57-.31 5 5 0 01-1.4-.79L26 20l-.16 5zm3.3-8.9L26 20l.16-5a5 5 0 011.57.31c.52.2.99.46 1.4.79zM21 19.84a5 5 0 01.32-1.58c.19-.51.46-.98.78-1.4L26 20l-5-.16zm8.9 3.29L26 20l5 .16a5 5 0 01-.3 1.58c-.2.51-.47.98-.8 1.4z" opacity=".6"/><path fill="#39393D" d="M24 20a2 2 0 114 0 2 2 0 01-4 0z"/><defs><linearGradient id="paint0_linear" x1="20" x2="20" y1="4" y2="36" gradientUnits="userSpaceOnUse"><stop offset=".02" stop-color="#fff"/><stop offset=".89" stop-color="#DCDCDC"/><stop offset=".93" stop-color="#F5F3F1"/></linearGradient><linearGradient id="paint1_linear" x1="20" x2="20" y1="4" y2="36" gradientUnits="userSpaceOnUse"><stop stop-color="#C2C2C2"/><stop offset="1" stop-color="#A1A1A1"/></linearGradient><linearGradient id="paint2_linear" x1="20" x2="20" y1="5.5" y2="34.5" gradientUnits="userSpaceOnUse"><stop stop-color="#FAF8F7"/><stop offset="1" stop-color="#E6E6E6"/></linearGradient><linearGradient id="paint3_linear" x1="16.5" x2="16.5" y1="27" y2="14" gradientUnits="userSpaceOnUse"><stop stop-color="#5A5B61"/><stop offset="1" stop-color="#47484C"/></linearGradient><linearGradient id="paint4_linear" x1="20" x2="20" y1="14" y2="27" gradientUnits="userSpaceOnUse"><stop offset=".34" stop-color="#39393D"/><stop offset=".86" stop-color="#fff"/></linearGradient></defs></svg>