<svg xmlns="http://www.w3.org/2000/svg" width="40" height="40" fill="none"><path fill="url(#paint0_linear)" stroke="url(#paint1_linear)" stroke-width=".75" d="M4.38 8A3.63 3.63 0 018 4.37h24A3.63 3.63 0 0135.63 8v24A3.63 3.63 0 0132 35.63H8A3.63 3.63 0 014.37 32V8z"/><path fill="url(#paint2_linear)" d="M5.5 8.5c0-1.66 1.3-3 2.9-3h23.2c1.6 0 2.9 1.34 2.9 3v23c0 1.66-1.3 3-2.9 3H8.4c-1.6 0-2.9-1.34-2.9-3v-23z"/><circle cx="20" cy="22" r="14" fill="url(#paint3_radial)"/><circle cx="20" cy="20" r="10.63" fill="url(#paint4_linear)" stroke="url(#paint5_linear)" stroke-width=".75"/><circle cx="20" cy="20" r="9.63" stroke="url(#paint6_linear)" stroke-width=".75"/><path stroke="#39393D" stroke-linecap="round" stroke-linejoin="round" stroke-width="2" d="M25 15l-2 2"/><circle cx="31.5" cy="31.5" r="1.5" fill="#62C95B"/><defs><linearGradient id="paint0_linear" x1="20" x2="20" y1="4" y2="36" gradientUnits="userSpaceOnUse"><stop offset=".02" stop-color="#fff"/><stop offset=".89" stop-color="#DCDCDC"/><stop offset=".93" stop-color="#F5F3F1"/></linearGradient><linearGradient id="paint1_linear" x1="20" x2="20" y1="4" y2="36" gradientUnits="userSpaceOnUse"><stop stop-color="#C2C2C2"/><stop offset="1" stop-color="#A1A1A1"/></linearGradient><linearGradient id="paint2_linear" x1="20" x2="20" y1="5.5" y2="34.5" gradientUnits="userSpaceOnUse"><stop stop-color="#FAF8F7"/><stop offset="1" stop-color="#E6E6E6"/></linearGradient><linearGradient id="paint4_linear" x1="20" x2="20" y1="10.1" y2="31" gradientUnits="userSpaceOnUse"><stop stop-color="#fff"/><stop offset="1" stop-color="#CECECE"/></linearGradient><linearGradient id="paint5_linear" x1="20" x2="20" y1="9" y2="31" gradientUnits="userSpaceOnUse"><stop stop-color="#C2C2C2"/><stop offset="1" stop-color="#A1A1A1"/></linearGradient><linearGradient id="paint6_linear" x1="20" x2="20" y1="10" y2="30" gradientUnits="userSpaceOnUse"><stop stop-color="#fff"/><stop offset=".63" stop-color="#D6D6D6"/><stop offset="1" stop-color="#EBE9E7"/></linearGradient><radialGradient id="paint3_radial" cx="0" cy="0" r="1" gradientTransform="matrix(0 14 -14 0 20 22)" gradientUnits="userSpaceOnUse"><stop offset=".25" stop-color="#39393D"/><stop offset="1" stop-color="#CECECE" stop-opacity="0"/></radialGradient></defs></svg>