<svg xmlns="http://www.w3.org/2000/svg" width="40" height="40" fill="none"><rect width="33.25" height="16.25" x="3.38" y="5.38" fill="url(#paint0_linear)" stroke="url(#paint1_linear)" stroke-width=".75" rx="2.63"/><rect width="32" height="15" x="4" y="6" fill="url(#paint2_linear)" rx="3"/><path fill="#6839CF" d="M32 9a1 1 0 112 0 1 1 0 01-2 0z"/><rect width="27" height="2" x="6.5" y="18.5" fill="url(#paint3_linear)" stroke="url(#paint4_linear)" rx="1"/><path stroke="#AECFFF" stroke-linecap="round" stroke-linejoin="round" stroke-width="2" d="M31.16 33.85l.34-1.23A2.65 2.65 0 0030 29.5a2.65 2.65 0 01-1.5-3.12l.34-1.23M20 34l.64-1.1c.66-1.14.4-2.5-.64-3.4a2.65 2.65 0 01-.64-3.4L20 25M8.84 33.85l.9-.9c.93-.93 1.03-2.32.26-3.45s-.67-2.52.26-3.45l.9-.9"/><defs><linearGradient id="paint0_linear" x1="20" x2="20" y1="5" y2="22" gradientUnits="userSpaceOnUse"><stop offset=".02" stop-color="#fff"/><stop offset=".89" stop-color="#DCDCDC"/><stop offset=".93" stop-color="#F5F3F1"/></linearGradient><linearGradient id="paint1_linear" x1="20" x2="20" y1="5" y2="22" gradientUnits="userSpaceOnUse"><stop stop-color="#C2C2C2"/><stop offset="1" stop-color="#A1A1A1"/></linearGradient><linearGradient id="paint2_linear" x1="20" x2="20" y1="6" y2="21" gradientUnits="userSpaceOnUse"><stop stop-color="#FAF8F7"/><stop offset=".13" stop-color="#fff"/><stop offset=".18" stop-color="#E2E1E0"/><stop offset=".46" stop-color="#EAE8E7"/><stop offset="1" stop-color="#E6E6E6"/></linearGradient><linearGradient id="paint3_linear" x1="15.92" x2="15.92" y1="21" y2="18" gradientUnits="userSpaceOnUse"><stop stop-color="#5A5B61"/><stop offset="1" stop-color="#47484C"/></linearGradient><linearGradient id="paint4_linear" x1="20" x2="20" y1="18" y2="21" gradientUnits="userSpaceOnUse"><stop offset=".34" stop-color="#39393D"/><stop offset=".86" stop-color="#fff"/></linearGradient></defs></svg>