<svg xmlns="http://www.w3.org/2000/svg" width="16" height="16"><path fill="#919CB5" d="M3.54 11.44C3.17 9.98 1 6.2 1 4.53c0-1.02 1.3-2.35 1.81-2.7l.22.2c-.05.44-.2 1.28-.04 2.2.2 1.14 2.67 5.52 2.57 7.03-.08.94-2.1 3.15-2.32 3-.24-.06.61-1.57.3-2.82zM7.65.64c.05-.39.09-.62 0-.64-.14-.07-1.59 1.17-2.24 2.46l3.16 3.17a14.27 14.27 0 01-.94-2.43c-.17-1.02-.05-1.97.02-2.56zm.4 14.58c-.13.44-.22.74-.1.77.27.19 2.85-2.63 2.95-3.84.05-.68-.31-1.81-.81-3.06L5.14 4.15c.23 1.35 1.12 3.34 1.92 5.1a23.93 23.93 0 011.27 3.14c.25.99-.08 2.1-.28 2.83zm4.53-5.58l2.17 2.16.15-.17c.05-.14.09-.26.1-.37.06-.92-.84-2.92-1.6-4.6-.47-1.06-.9-1.99-.97-2.43-.14-.8-.04-1.54.02-2 .04-.3.06-.49 0-.5-.15-.08-2.01 1.58-2.01 2.8 0 1.03.82 2.86 1.54 4.46l.05.1.55.55zm.3 4.24l.95-1.05-.78-.78c0 .6-.17 1.19-.3 1.61l-.01.07.15.15z"/><path fill="#919CB5" d="M14.5 13.5c.26.26.26.74 0 1a.74.74 0 01-1 0l-12-12a.74.74 0 010-1 .74.74 0 011 0l12 12z"/></svg>
