<svg xmlns="http://www.w3.org/2000/svg" width="16" height="16"><path fill="#919CB5" d="M3 1.73c-.14-.08-2 1.58-2 2.8 0 1.67 2.17 5.45 2.54 6.91.31 1.25-.54 2.76-.3 2.83.21.14 2.24-2.07 2.32-3.01.1-1.5-2.37-5.9-2.57-7.03-.23-1.31.18-2.47.02-2.5zM7.65 0C7.47-.1 5.1 2.02 5.1 3.58c0 2.12 2.77 6.94 3.24 8.8.4 1.6-.68 3.52-.39 3.61.28.19 2.86-2.63 2.96-3.84.13-1.91-3.02-7.5-3.27-8.95-.29-1.68.23-3.16.02-3.2zm4.8 1.73c-.15-.08-2.01 1.58-2.01 2.8 0 1.67 2.17 5.45 2.54 6.91.31 1.25-.54 2.76-.3 2.83.21.14 2.24-2.07 2.32-3.01.1-1.5-2.37-5.9-2.57-7.03-.23-1.31.18-2.47.02-2.5z"/></svg>