<svg xmlns="http://www.w3.org/2000/svg" width="16" height="16" fill="none"><path fill="#919CB5" d="M2 1V0a1 1 0 00-1 1h1zm4 0h1a1 1 0 00-1-1v1zm0 3v1a1 1 0 001-1H6zm3-3l.62-.78A1 1 0 008 1h1zm2.5 2l-.62.78a1 1 0 001.24 0L11.5 3zM14 1h1a1 1 0 00-1.62-.78L14 1zM2 2h4V0H2v2zm3-1v3h2V1H5zm1 2H2v2h4V3zm4 4V1H8v6h2zM8.38 1.78l2.5 2 1.24-1.56-2.5-2-1.24 1.56zm3.74 2l2.5-2L13.38.22l-2.5 2 1.24 1.56zM13 1v6h2V1h-2zM3 7V4H1v3h2zm0-3V1H1v3h2z"/><path stroke="#919CB5" stroke-linejoin="round" stroke-width="2" d="M2 9h3v3H3v3h3m8-6h-3v3h2v3h-3"/><path fill="#919CB5" d="M7 14h2v2H7z"/></svg>