<svg xmlns="http://www.w3.org/2000/svg" width="16" height="16"><path fill="#919CB5" d="M12.3 9.36l1.21 1.2c.74-2.7-.81-5.72-2.01-7L9.97 5.27a6.81 6.81 0 00-3.45-4.23c-.24-.12-.53.07-.5.32 0 .55-.07 1.04-.22 1.5l6.5 6.5zm-8.35 3.92c.6.49 1.29.84 2.03 1 .07.03.12-.07.07-.11-1.6-1.53-.72-3.18-.07-3.92a3.72 3.72 0 001.07-2.58c0-.11.12-.2.21-.14a3.6 3.6 0 011.7 2.35c.26-.26.35-.66.35-1.01 0-.12.15-.21.27-.12.85.78 2.33 3.4-.05 5.46-.05.05 0 .14.05.12A5.65 5.65 0 0012.87 12L5.13 4.27c-.3.5-.65.97-1.01 1.46l-.73 1c-1.1 1.62-1.8 4.6.55 6.54z"/><path fill="#919CB5" d="M13.8 12.86a.67.67 0 11-.94.94L2.2 3.14a.67.67 0 11.94-.94L13.8 12.86z"/></svg>