<svg xmlns="http://www.w3.org/2000/svg" width="16" height="16"><path fill="#919CB5" d="M4 9.5l.6.8.4-.3v-.5H4zm3 0H6v.5l.4.3.6-.8zm-2-6a.5.5 0 01.5-.5V1A2.5 2.5 0 003 3.5h2zm0 6v-6H3v6h2zm-1 2c0-.49.23-.93.6-1.2L3.4 8.7A3.5 3.5 0 002 11.5h2zM5.5 13A1.5 1.5 0 014 11.5H2A3.5 3.5 0 005.5 15v-2zM7 11.5A1.5 1.5 0 015.5 13v2A3.5 3.5 0 009 11.5H7zm-.6-1.2c.37.28.6.71.6 1.2h2a3.5 3.5 0 00-1.4-2.8l-1.2 1.6zM6 3.5v6h2v-6H6zM5.5 3a.5.5 0 01.5.5h2A2.5 2.5 0 005.5 1v2z"/><path stroke="#919CB5" stroke-linecap="round" stroke-width="2" d="M11 3h3m-3 4h3"/></svg>