<svg xmlns="http://www.w3.org/2000/svg" width="16" height="16"><path fill="#919CB5" d="M11 13H5c-.55 0-1-.56-1-1.25v-7.5C4 3.56 4.45 3 5 3h6c.55 0 1 .56 1 1.25v7.5c0 .69-.45 1.25-1 1.25zm-8.12-2h-.75c-.07 0-.13-.34-.13-.75v-4.5c0-.41.06-.75.13-.75h.75c.06 0 .12.34.12.75v4.5c0 .41-.06.75-.13.75zm11 0h-.76c-.06 0-.12-.34-.12-.75v-4.5c0-.41.06-.75.13-.75h.74c.07 0 .13.34.13.75v4.5c0 .41-.06.75-.13.75zm-13-1H.11C.07 10 0 9.78 0 9.5v-3c0-.28.06-.5.13-.5h.74c.07 0 .13.22.13.5v3c0 .28-.06.5-.13.5zm15 0h-.76c-.06 0-.12-.22-.12-.5v-3c0-.28.06-.5.13-.5h.74c.07 0 .13.22.13.5v3c0 .28-.06.5-.13.5z"/></svg>